<svg id="Layer_1" data-name="Layer 1" xmlns="http://www.w3.org/2000/svg" viewBox="0 0 897 300"><defs><style>.cls-1{fill:#fff;}</style></defs><title>BPRG_WhiteLogo</title><path class="cls-1" d="M102.64,150.27a34.3,34.3,0,0,0,20.91-43.77q-.4-1.14-.88-2.24C119,95.68,112.4,90.27,104,86.9c-2.36-.93-4.86-1.47-7.28-2.25-1.16-.37-2.58-.34-3.19-1.83.76-1.76,2.52-1.81,4-2.25C106,78,112.65,73.31,116,64.81s2.17-23.45-9-31.94a35.71,35.71,0,0,0-9.87-5.2c-8-2.82-16.39-3.75-24.8-4-19-.55-38,.3-57,1.5-2.22.15-3,1-3.11,3.19-.13,2.53.65,3.73,2.74,4.09,1.92.33,3.88.49,5.79.88,4,.85,5.67,2.57,6.23,6.66a53.09,53.09,0,0,1,.56,7.1q.06,41.67,0,83.32c0,1.53,0,3.07-.13,4.59-.19,1.93-.48,3.88-.85,5.78a6.94,6.94,0,0,1-5.31,5.59c-2.12.58-4.25,1.06-6.44,1.5a8.18,8.18,0,0,0-4.73,2v3.57c1.93,1.81,1.93,1.7,4.83,1.67,11-.13,22.08-.23,33.11-.23,3.9,0,7.81.41,11.68.51a175.75,175.75,0,0,0,24.68-1.06A80.4,80.4,0,0,0,102.64,150.27ZM54.71,74V41.67a40.14,40.14,0,0,1,.15-4.08c.33-3,1.64-4.53,4.61-4.86a31,31,0,0,1,13.81,1.06A21.45,21.45,0,0,1,87.54,49a32.28,32.28,0,0,1,.57,15.62c-1.79,8.63-7.91,14.71-16.68,16a101.36,101.36,0,0,1-11.93.49,7.7,7.7,0,0,1-2-.33c-1.91-.47-2.55-1.19-2.71-3.19-.1-1.15-.06-2.35-.06-3.54Zm10.86,71.73a12.31,12.31,0,0,1-8.76-7.8,28.33,28.33,0,0,1-1.92-10.19c-.11-11-.11-21.88-.11-32.82,0-3.72,1.06-4.8,4.85-5.1,1.6-.14,3.19,0,4.83,0v-.46c3.6.51,7.28.67,10.77,1.6C85.85,93.81,91.84,101,94,111.58a38.37,38.37,0,0,1-.84,19.08c-2.24,7.22-6.49,12.64-14,14.9A24.83,24.83,0,0,1,65.57,145.74Z"/><path class="cls-1" d="M582.85,153.37c.32-2.24-.25-3-2.51-3.45-1.5-.3-3-.59-4.48-.93a5.41,5.41,0,0,1-4.41-4.7,32.38,32.38,0,0,1-.52-5.05c-.07-7.65-.06-15.29-.08-22.93V115a2,2,0,0,1,1.7-1.94c5.05-1.49,9.41.45,11.58,5.19,1.58,3.48,3,7,4.79,10.41a166.17,166.17,0,0,0,8.5,14.78,25.58,25.58,0,0,0,15.72,11,48.78,48.78,0,0,0,20.18.35,3.53,3.53,0,0,1,2.42.13,5.6,5.6,0,0,0,2.25.15h41.66a10.84,10.84,0,0,0,.61-1.69c.44-2.22-.18-3-2.43-3.46l-4.49-.91a5.31,5.31,0,0,1-4.63-4.74,67,67,0,0,1-.64-8.1q-.08-29.18,0-58.35a72.19,72.19,0,0,1,.56-7.86c.33-3,2.23-4.63,5.13-5.18,1.58-.31,3.19-.69,4.75-.89a2,2,0,0,0,1.93-2.22A19.11,19.11,0,0,0,680,59H635.5a10.75,10.75,0,0,0-.46,1.5c-.32,2.35.16,3,2.47,3.51,1.33.28,2.68.47,4,.78,3.65.82,5,2.27,5.45,6a55.1,55.1,0,0,1,.42,6.37v59.62a53,53,0,0,1-.47,6.6c-.45,3.49-1.74,4.82-5.19,5.7-2.19.56-4.38,1.15-6.57,1.7a3,3,0,0,1-1-.08,18.93,18.93,0,0,1-11.2-5.52,48.38,48.38,0,0,1-8.12-10.74c-3.77-6.73-7.35-13.58-11-20.4-.68-1.27-1.33-2.56-1.9-3.89-.76-1.79-.57-2.26,1.16-3.27,1.47-.86,3-1.64,4.41-2.55,9.19-5.84,12.17-15,9.84-24.94-2.12-9-8.22-14.45-16.61-17.48A60.73,60.73,0,0,0,580,58.83c-9.42,0-18.85.32-28.27.56-3.19.08-6.45.33-9.65.59-1.59.14-2.12.93-2.22,2.55s.45,2.37,2.06,2.65c1.33.24,2.69.36,4,.63,3,.56,4.25,1.84,4.68,4.88a50.74,50.74,0,0,1,.49,6.59v60.13a58.63,58.63,0,0,1-.45,6.08c-.33,3-1.9,5-5,5.57-1.58.29-3.19.69-4.75.91a1.92,1.92,0,0,0-1.87,2v0a18.39,18.39,0,0,0,.35,2.87h43.06A12.27,12.27,0,0,0,582.85,153.37Zm-12-65.73V71.35a20.7,20.7,0,0,1,.08-2.29c.27-2.67,1.18-3.55,3.87-3.76,11.34-.89,19.79,6,21.13,17.34a30.39,30.39,0,0,1-1,12.88l0,0c-2.28,7.26-7.31,11-14.87,11.1a41.09,41.09,0,0,1-5.83-.31c-2.62-.35-3.35-1.19-3.39-3.87C570.82,97.49,570.89,92.57,570.89,87.64Z"/><path class="cls-1" d="M504.53,28.22a83.2,83.2,0,0,0-27.26-4.51c-12.48-.12-25,.24-37.44.53-4.92.12-9.82.59-14.74.92-2,.14-2.94,1.31-3,3.6s.57,3.07,2.82,3.36c2,.25,4.06.42,6.05.8,4.32.8,6,2.52,6.55,6.9a54.48,54.48,0,0,1,.53,6.85q.06,15.53.06,31.08,0,27.77-.18,55.54a50.2,50.2,0,0,1-.57,6.59c-.53,3.84-2.56,6.39-6.53,7.13-2.42.45-4.85.87-7.24,1.43a3.46,3.46,0,0,0-2.12,1.19,4.58,4.58,0,0,0,.06,4.4c.67,1.44,1.91,1.36,3.24,1.36,6.79-.22,13.58-.51,20.37-.56,8.12-.06,16.28,0,24.42.15,3.81.05,7.64.3,11.45.45,1,0,2,.16,2.74-.9a3.85,3.85,0,0,0-2.51-6.15c-2.43-.39-4.86-.8-7.3-1.16a7.43,7.43,0,0,1-6.84-6.51,12.25,12.25,0,0,1-.28-1.76c-.16-4.07-.41-8.13-.41-12.2V87.23l0,.05V42.45a35.24,35.24,0,0,1,.32-5.59c.42-2.65,1.77-3.85,4.43-4.15a25.35,25.35,0,0,1,10.34.81c8,2.43,12.83,8,15.64,15.57,3.26,8.78,3.16,17.81,1.14,26.83a23.54,23.54,0,0,1-14,17c-1.16.52-2.37.95-3.54,1.43a2.54,2.54,0,0,0-1.73,3c.22,1.68,1,2.54,2.54,2.62a57.35,57.35,0,0,0,28.26-5.1c11.15-5.3,18.08-13.88,19.65-26.3,1.16-9.19-.06-18-5.37-25.86C519.25,35.55,512.5,31.05,504.53,28.22Z"/><path class="cls-1" d="M775.1,156a19.6,19.6,0,0,0,1.9-.73,3.53,3.53,0,0,0,2.33-3.75q-.3-22.68-.3-45.35c0-8.24.1-16.48.4-24.71a89,89,0,0,1,1.38-11.1c.5-3,2.5-4.76,5.31-5.61,1.3-.39,2.64-.61,4-.89,1.93-.42,2.57-1.22,2.32-3.13a10,10,0,0,0-.57-1.81H756.09c-1.41,3.38-.86,4.48,2.58,5.09a54.16,54.16,0,0,1,5.46,1.16A6.55,6.55,0,0,1,769,70.52a42,42,0,0,1,.86,5.31c.36,5.76.75,11.52.85,17.29.13,8.11,0,16.27,0,24.42A10.53,10.53,0,0,1,770,122c-1.64-1.73-3-3.1-4.25-4.58-11-13-22.09-26-33-39.14-5-6-10-12-12.9-19.46h-1.58c-6.11.1-12.22.28-18.33.28-3.65,0-7.3-.25-10.95-.32-1.6,0-2,.5-2.21,2.12-.19,2,.28,2.62,1.85,2.92s3.2.48,4.76.86c4.79,1.16,6.87,3.64,7.15,8.59.13,2.51.13,5,.13,7.43,0,16.62,0,33.27-.2,49.91a104.81,104.81,0,0,1-1.32,12.64c-.41,3.11-2.42,5-5.38,5.78-1.42.38-2.74.65-4.25,1s-2.06.85-2.06,2.37a12.74,12.74,0,0,0,.49,2.52h36a7.28,7.28,0,0,0,.46-1.44c.28-2.64-.44-3.54-2.68-3.54a24,24,0,0,1-5-.91c-3.48-.84-5.76-2.93-6.12-6.6-.56-5.66-1.26-11.32-1.39-17-.23-10.69-.11-21.4-.11-32.1,0-2.89,0-5.78.06-8.66a23.7,23.7,0,0,1,.56-3.3l.59-.14c1.73,2,3.54,3.83,5.18,5.85q18.67,22.88,37.17,45.93c5.58,6.88,10.88,13.92,16.19,21C771.21,157.1,771.36,157.23,775.1,156Z"/><path class="cls-1" d="M322.49,155c7.72-.13,15.45-.35,23.17-.35,16.39.07,32.77.29,49.16.45,2.56,0,2.7.08,3.47-2.34q2.06-6.42,3.76-12.94a48.61,48.61,0,0,0,1.06-6.77c.17-1.56-.4-2.18-1.89-2.51-1.88-.41-2.84.11-3.9,1.92-1.77,3-3.43,6.08-5.47,8.88A15.79,15.79,0,0,1,379,148.06c-1.65,0-3.23.3-4.83.22-4-.19-8-.34-11.91-.82a7.26,7.26,0,0,1-6.46-6,25.26,25.26,0,0,1-.81-5.31q-.24-9.56-.22-19.11c0-1.87,0-3.75.06-5.61.12-2,.63-2.69,2.62-2.69q7.89,0,15.77.29a5.76,5.76,0,0,1,5.55,4.47c.56,1.86.91,3.66,1.39,5.67s3.55,3,5,1.59a1.88,1.88,0,0,0,.45-1.11,19.31,19.31,0,0,0,0-2c-.11-5.6-.29-11.2-.29-16.8,0-3.23.24-6.49.31-9.67a2.71,2.71,0,0,0-.49-1.84c-1.49-1.4-4.51-.3-5,1.72-.31,1.43-.56,2.87-1,4.25-1.22,4.33-2.92,5.72-7.43,5.84-4.15.06-8.31.06-12.48.06-4.32,0-4.52-.19-4.52-4.64V70.8a21.12,21.12,0,0,1,.08-2.29c.22-2.1.78-2.73,2.9-2.73,5.61,0,11.21-.12,16.81.16,7,.35,12.08,3.61,14.45,10.49.53,1.52,1.1,3,1.73,4.51a3,3,0,0,0,3.63,1.51c1.53-.36,2-1,1.86-2.78q-.63-7.53-1.33-15c-.18-1.92-.45-3.82-.68-5.87-2.6.12-5,.32-7.32.32q-25.49.05-51,0c-3.77,0-7.47-.27-11.2-.34-1.66,0-2.11.42-2.34,2-.24,1.78.21,2.61,1.81,3,1.32.34,2.65.58,4,.89,3.88.87,5.18,2.29,5.61,6.18a64.56,64.56,0,0,1,.42,6.86v58.34a64.18,64.18,0,0,1-.45,7.1c-.4,3.62-1.83,5.1-5.39,5.74-2.34.4-4.69.7-7,1.06-1.65.25-2.2.88-2.2,2.52a15.63,15.63,0,0,0,.48,2.47C320.78,155,321.61,155,322.49,155Z"/><path class="cls-1" d="M314.88,63.81l.16,0a2,2,0,0,0,1.72-2.26,15.46,15.46,0,0,0-.46-2.54H280.42a5.6,5.6,0,0,0-.47.95c-.58,2.46,0,3.39,2.47,3.88l2.25.44c6.83,1.25,8.72,3.1,9.31,10,.54,6.25,1,12.54,1,18.81q.08,14.77-.52,29.53A35.55,35.55,0,0,1,290,138.36a19.4,19.4,0,0,1-12.08,9.89,27.55,27.55,0,0,1-16.78-.58c-6.35-2.26-10-7.09-12-13.28a51.44,51.44,0,0,1-2.26-15.86c-.12-13.33-.12-26.66-.12-40a78.46,78.46,0,0,1,.71-9.38,5.07,5.07,0,0,1,4.25-4.52,47.25,47.25,0,0,1,4.74-.93l.24,0a2,2,0,0,0,1.69-2.18,19.35,19.35,0,0,0-.41-2.69h-4.09c-8.91.11-17.83.29-26.74.29-3.48,0-7-.25-10.44-.33-1.67,0-2.15.46-2.29,2-.16,1.73.19,2.47,1.73,2.89s3.15.72,4.73,1.06a5.78,5.78,0,0,1,4.86,5.4,49.07,49.07,0,0,1,.46,5.57c.05,13.76,0,27.47.11,41.27a95.75,95.75,0,0,0,1.06,13.18c2,13.06,9.18,21.66,22.14,25a59.24,59.24,0,0,0,27.5.59c13.81-3,22.28-11.44,24.89-25.35a94.61,94.61,0,0,0,1.51-14.87c.29-10.25,0-20.53.29-30.79A137.22,137.22,0,0,1,305,71.06c.41-3.32,2.55-5.26,5.65-6.19A33.78,33.78,0,0,1,314.88,63.81Z"/><path class="cls-1" d="M885.22,55.81a2.68,2.68,0,0,0-3.19.73,5.31,5.31,0,0,1-4.29,2.27c-1.52.12-3,.32-4.57.32H812c-1.86,0-3.73-.23-5.59-.4a3.19,3.19,0,0,1-3-1.68c-.68-1.57-1.85-1.57-3.19-1.37S799,57,798.81,58c-1.08,7.31-2.06,14.63-4.18,21.73a1.77,1.77,0,0,0,1.16,2.41c2,1,3.5.34,4.48-1.72,1.23-2.6,2.41-5.26,3.87-7.73a13.59,13.59,0,0,1,12.24-7h9.43c4,0,4.25.21,4.25,4.36v65a61.66,61.66,0,0,1-.44,8.38c-.58,4.22-2,5.46-6.3,6-1.86.22-3.71.38-5.58.58s-2.54.93-2.42,2.8a10.54,10.54,0,0,0,.54,2.06H864.2a12.53,12.53,0,0,0,.4-1.94c.06-2-.18-3-2.62-3.08a54.8,54.8,0,0,1-6-.86c-2.84-.46-4.27-2.28-4.65-5a38.59,38.59,0,0,1-.49-5.31q-.06-34.49-.06-69V68.9c.15-2.48.75-3.19,3.26-3.19h9.94c6.15,0,10.4,2.78,12.52,8.55.78,2,1.38,4.17,2,6.3.25.81.54,1.58,1.51,1.87,2.29.67,3.9-.52,4-2.9.23-4.92.47-9.83.85-14.74.18-2.36.69-4.69,1.06-7C886,57,886.15,56.22,885.22,55.81Z"/><path class="cls-1" d="M156.21,154.71c13.92,0,27.85.15,41.79.22h12.74c.74-2.12,1.68-4.17,2.23-6.37q1.93-7.65,3.52-15.37c.35-1.62-.08-2.12-1.57-2.69-1.91-.67-3-.31-4,1.45-2,3.26-3.84,6.62-6.05,9.72A15.13,15.13,0,0,1,192.38,148c-1.7.05-3.4.31-5.09.23-4-.18-8-.33-11.91-.82a7.2,7.2,0,0,1-6.46-6,36.69,36.69,0,0,1-1-7.29c-.08-8.88-.08-17.71-.08-26.55,0-10.7,0-21.41.06-32.11a45.25,45.25,0,0,1,.51-5.82,5.39,5.39,0,0,1,4.67-5c1.5-.29,3-.55,4.5-.85,1.86-.37,2.26-.83,2.18-2.71a15.93,15.93,0,0,0-.45-2.28c-1.39,0-2.56,0-3.78,0-9.18.11-18.34.3-27.51.3-3.77,0-7.47-.27-11.2-.33-1.43,0-2.07.71-2.23,2.2q0,.1,0,.21a2.26,2.26,0,0,0,2,2.52c1.84.33,3.68.59,5.52.91a5.22,5.22,0,0,1,4.56,4.79,45.57,45.57,0,0,1,.55,6.37q.06,20.9.06,41.79c0,7.05,0,14.1-.06,21.15a41.24,41.24,0,0,1-.52,5.56,5.16,5.16,0,0,1-4.55,4.79c-2,.33-4,.64-6,.92s-2.61.95-2.32,3c.24,1.69.64,2,2.56,2C143,154.95,149.58,154.71,156.21,154.71Z"/><path class="cls-1" d="M640.79,219.09c0-.14-.18-.27-.35-.51H599.68v6.16h29.17c2.51,0,2.72.18,2.62,2.56a38.06,38.06,0,0,1-1.88,11,16.41,16.41,0,0,1-12.2,11.17,37,37,0,0,1-16.41.44,20.18,20.18,0,0,1-15.12-11.68,32.48,32.48,0,0,1-2-5.48,65.7,65.7,0,0,1-1.27-24.26,38.51,38.51,0,0,1,2.78-10.82c2.75-6.52,7.49-10.93,14.43-12.49a41.28,41.28,0,0,1,9.35-.75c10,.1,17.29,6.58,19.41,15.65.22,1,.49,1.89.75,3h9.26a13.22,13.22,0,0,0-.22-2.38,18,18,0,0,0-.3-2c-2-9.28-7.75-15.27-16.53-18.46A43.54,43.54,0,0,0,596,179.05a28.85,28.85,0,0,0-20.18,16.79,45.44,45.44,0,0,0-3.94,16.75c-.39,7.24-.06,14.43,2.06,21.43,3.37,10.94,10.21,18.37,21.42,21.56,5,1.39,10.06,1.39,15.15,1.24a39.52,39.52,0,0,0,14.58-3.13c8.48-3.61,14.06-9.84,15.3-19.11C641.09,229.48,640.71,224.25,640.79,219.09Z"/><path class="cls-1" d="M103.86,226.89a23.48,23.48,0,0,1-1.5-2.12c.47-.27.61-.42.75-.42.76-.06,1.53-.08,2.28-.16,5-.5,9.66-1.88,13.55-5.2,5.3-4.51,7.22-10.47,7.17-17.26-.07-9.54-4.8-16.56-13.68-20.07a36.91,36.91,0,0,0-13.67-2.52H71.52c-.83,0-1.64.08-2.7.15-.1,1-.25,1.78-.25,2.6V253a20.19,20.19,0,0,0,.33,2.61h9.25V189a22.67,22.67,0,0,1,.23-3.11,3.89,3.89,0,0,1,1-.33c7.54.05,15-.56,22.63.46s12.34,5.29,13.61,12.36a22.22,22.22,0,0,1,.23,4.06c0,7.46-3.93,12.6-11.16,14.43a40.61,40.61,0,0,1-7.78,1c-3.19.13-6.38,0-10,0,.78,1.07,1.22,1.75,1.73,2.39L99.3,233.8,115.23,254c.73.93,1.39,1.77,2.86,1.77,3.13-.07,6.27,0,10,0-.86-1.09-1.34-1.76-1.88-2.41Q115,240.12,103.86,226.89Z"/><path class="cls-1" d="M870.84,208.2a21.75,21.75,0,0,0-14.1-10.85,30.8,30.8,0,0,0-9.84-.8c-5.47.38-10.51,1.88-14.43,6a8.87,8.87,0,0,1-1.54,1c-.17-2.12-.31-3.93-.47-5.86H823c-.59,2.8-.49,76.88.07,78.81h8.5V252.67c0-.85-.33-1.86.66-2.5a54.78,54.78,0,0,0,5,3.6c5.9,3.34,12.23,3.76,18.73,2.27,9.18-2.12,14.58-8.13,17.36-16.85,1.82-5.55,2-11.22,1.57-16.93A32.61,32.61,0,0,0,870.84,208.2Zm-6.44,31v0c-2.71,8.29-8.74,11.52-17.55,11a19.87,19.87,0,0,1-3.27-.45c-5.94-1.33-9.39-5.31-10.92-10.92a45.88,45.88,0,0,1,.06-24.63c1.55-5.53,5-9.38,10.83-10.68a20.42,20.42,0,0,1,9.56,0,14.87,14.87,0,0,1,10.39,9A34.7,34.7,0,0,1,866,227.3,35.74,35.74,0,0,1,864.4,239.24Z"/><path class="cls-1" d="M509.8,197.54a33.83,33.83,0,0,0-14.37-.58c-4.1.7-7.89,1.94-10.81,5.13a10.63,10.63,0,0,1-1.13.92l-.55-.19V195c0-2.59,0-5.31,0-7.9s-.1-5.18-.1-7.82h-9.1c-.06,1.1-.15,2-.15,2.93v11.68q.1,29.3.23,58.58a29.25,29.25,0,0,0,.33,3.08h8.72v-3.19c0-11.46.2-22.93,0-34.38A14.53,14.53,0,0,1,494,203.72a24.43,24.43,0,0,1,9.82-.46,11,11,0,0,1,9.44,9.06,23.24,23.24,0,0,1,.46,4.53v35.66c0,1.06.1,2,.16,3.19a65.12,65.12,0,0,0,8.6-.15c.07-.89.17-1.55.17-2.22V213.09a14.86,14.86,0,0,0-.28-3C521,203.14,516.37,199.27,509.8,197.54Z"/><path class="cls-1" d="M361.56,197.53a1.4,1.4,0,0,0-.35,0h-3.81c-2.12,0-2.28.18-2.36,2.34-.06,1.75-.11,3.5-.15,5.31l-.66.16a11.91,11.91,0,0,1-1.06-1.31,17.26,17.26,0,0,0-9.56-6.43,27.38,27.38,0,0,0-11.56-.71c-9.61,1.38-15.83,6.74-19.24,15.66a36.52,36.52,0,0,0-2.19,10.68c-.51,7.43.35,14.75,3.92,21.49a21.36,21.36,0,0,0,13.13,10.95,31.27,31.27,0,0,0,16.08.32,14.6,14.6,0,0,0,9.36-6.51c.36-.54.81-1.06,1.2-1.54l.52.06c.15,2.53.31,5,.47,7.67a39.41,39.41,0,0,0,7.43,0c.07-1.28.17-2.29.17-3.29V201.1l-.06-2A1.4,1.4,0,0,0,361.56,197.53Zm-8.85,42.07h0c-2.68,8-8.74,11.21-17.28,10.62-8-.57-12.56-5.38-14.57-12.74a42.87,42.87,0,0,1,.11-22.64c1.55-5.71,5-9.82,11-11.21a21.74,21.74,0,0,1,11.54.37,13.32,13.32,0,0,1,8.16,7.21,28.55,28.55,0,0,1,2.55,10.06c.16,1.76,0,3.56,0,5.31A37.49,37.49,0,0,1,352.71,239.6Z"/><path class="cls-1" d="M169.95,197.88a27.47,27.47,0,0,0-15-.57,22.86,22.86,0,0,0-16.6,14.45,39.81,39.81,0,0,0,0,30.06,22.3,22.3,0,0,0,16.18,14,26.47,26.47,0,0,0,12.33.4c8.84-2,15.09-7.05,18.05-15.81a5.56,5.56,0,0,0,.15-4.11H177.1c-.56,1.6-1.06,3.19-1.68,4.76-1.79,4.44-4.84,7.62-9.56,8.74a16.24,16.24,0,0,1-17.54-6.9,24.36,24.36,0,0,1-3.66-10.47c-.42-2.88-.16-3.15,2.82-3.15H185.4c0-2.24.12-4.09.11-5.93a32.5,32.5,0,0,0-3.32-15A20.41,20.41,0,0,0,169.95,197.88Zm6.31,24.78c-1.06.1-1.86.23-2.69.23H147.35a14.77,14.77,0,0,1-1.53-.07c-.9-.1-1.25-.64-1.32-1.54-.67-8.78,7.24-18,16-18.26v0c5.87-.18,11,2,13.88,8.36A21.42,21.42,0,0,1,176.26,222.66Z"/><path class="cls-1" d="M286.6,198a27,27,0,0,0-15.78-.7c-8.55,2.12-14,7.69-17,15.78a40.83,40.83,0,0,0-.74,25.06c2.53,9.32,8.36,15.58,18,17.83a25.84,25.84,0,0,0,11.85.29c8.94-2.06,15.23-7.15,18.13-16a5.69,5.69,0,0,0,.06-4h-7c-1,0-1.22.75-1.48,1.49-.5,1.44-.89,2.93-1.53,4.31a13.35,13.35,0,0,1-13.17,8.29,15.93,15.93,0,0,1-14.44-8.87,22.37,22.37,0,0,1-2.7-12.2h40.42a5.87,5.87,0,0,0,.4-1.25c.18-5.63,0-11.21-2-16.59C297.29,205,293.14,200.31,286.6,198Zm5.73,24.59c-1.06.07-1.93.2-2.85.2h-27c-1.26,0-1.92-.52-1.81-1.84.61-6.26,2.77-11.68,8.17-15.43,7-4.8,19-3.19,22.42,7.51A20.54,20.54,0,0,1,292.34,222.61Z"/><path class="cls-1" d="M724.12,197.34a36.81,36.81,0,0,0-13.64-.37c-8,1.26-14.31,5-18.24,12.32-2.89,5.37-3.8,11.19-4.12,17.26a102.69,102.69,0,0,0,1.7,11c2.57,10,8.89,16.4,19.11,18.49a37.27,37.27,0,0,0,12.89.31c10.32-1.5,17.31-7,20.54-16.93a41.14,41.14,0,0,0,.25-24.82C739.87,205.32,733.75,199.41,724.12,197.34Zm8.09,43.5c-2.88,5.67-9,10.25-18,9.29-7.74-.82-12.56-5.19-15-12.26a34,34,0,0,1,0-22.49c2-6,5.91-10.28,12.28-11.78,9-2.12,17.79,1.33,21.55,10.75a35,35,0,0,1,2.12,12.22A32.45,32.45,0,0,1,732.21,240.84Z"/><path class="cls-1" d="M234.8,226.86a47.21,47.21,0,0,0-7.37-2.75c-4.15-1.18-8.4-2-12.55-3.19a31.79,31.79,0,0,1-6.55-2.71,6.31,6.31,0,0,1-3.33-6.37,8.17,8.17,0,0,1,4.53-6.9,16.3,16.3,0,0,1,6.57-1.76c7.26-.7,15.3,2,16.45,9.72a1.67,1.67,0,0,0,1.16,1.06h8a15.67,15.67,0,0,0-3.87-10.53,18.29,18.29,0,0,0-9.06-5.4,38.68,38.68,0,0,0-17.87-.95,21.64,21.64,0,0,0-11.68,5.78c-5.84,5.83-5.36,17.45,3,21.85a39.92,39.92,0,0,0,7.54,3c3.68,1.05,7.45,1.59,11.12,2.65a41.33,41.33,0,0,1,8.28,3.1c3.54,1.89,4.74,5.33,3.8,9.12-.87,3.31-3.18,5.16-6.18,6.22a25.49,25.49,0,0,1-14,1.06c-5-1.13-8.89-3.78-10.09-9.22a13.36,13.36,0,0,0-.44-1.3h-8.19a3.51,3.51,0,0,0-.39.73,4.46,4.46,0,0,0,0,1.06,14.87,14.87,0,0,0,5.75,10.4,21.24,21.24,0,0,0,7.43,3.79,40.55,40.55,0,0,0,18.88.85,25.49,25.49,0,0,0,11.58-5C244.57,245.45,245.71,232,234.8,226.86Z"/><path class="cls-1" d="M797.24,197.72v3c0,11.55-.13,23.1,0,34.64A14,14,0,0,1,787.44,249a22.73,22.73,0,0,1-10.76,1c-5.3-.8-8.82-3.78-10-9.09a21.68,21.68,0,0,1-.44-4.53V200.76c0-1-.14-2-.14-3.08h-8.71c-.06,1.16-.16,2.07-.13,3v38a23.56,23.56,0,0,0,.44,5.05c1.48,6.58,5.95,10.29,12.19,12a33.07,33.07,0,0,0,15.62.47c4.47-.9,8.34-2.87,10.46-7.27.15-.32.51-.53,1.26-1.27v8h8.5c.67-2.69.57-55.83-.13-58A53.75,53.75,0,0,0,797.24,197.72Z"/><path class="cls-1" d="M452.81,235.84c-.62,2-1.08,3.79-1.73,5.46-1.41,3.73-3.8,6.69-7.69,8-7.68,2.55-15.33.12-19.11-7.58a30.32,30.32,0,0,1-2.77-10.52,41.41,41.41,0,0,1,1.68-17.61c2.09-6.22,6.19-10.06,12.91-10.62,6-.51,10.74,1.9,13.27,6.64a40.54,40.54,0,0,1,2.23,6.19c.21.66.33,1.32.53,2.12,3,0,5.79.16,8.86-.1-.2-1.59-.29-2.94-.53-4.25-1.45-7.72-5.72-13.12-13.28-15.63a30.7,30.7,0,0,0-16.56-.72c-9,2-14.21,7.79-16.71,16.36-1.82,6.19-1.88,12.56-1.36,18.93A32.92,32.92,0,0,0,416,245.24a19.88,19.88,0,0,0,13.08,10.51,35.13,35.13,0,0,0,13.61.61c12.37-1.6,17.62-9.67,18.74-19.75,0-.2-.18-.44-.33-.76Z"/><path class="cls-1" d="M398.17,197.17c-4.21.69-7.67,2.64-9.72,6.6a8.88,8.88,0,0,1-1.26,1.36l-.29-7.56c-2.69,0-5-.27-7.31.19-.57,3-.45,56,.14,57.87h8.39c.11-1.28.11-2.29.19-3.27V224.62c0-2.29-.11-4.59,0-6.87.38-8.52,6.11-14,14.6-14h3.83a28.19,28.19,0,0,0-.08-7.43C403.69,196.62,400.9,196.72,398.17,197.17Z"/><path class="cls-1" d="M674.07,197.22c-4.25.72-7.61,2.75-9.56,6.77a4.25,4.25,0,0,1-.62.76l-.68,0c-.07-.89-.21-1.79-.21-2.69a30,30,0,0,0-.1-3c-.07-.49-.53-1.32-.88-1.32a21.31,21.31,0,0,0-6.37.07c-.52,4.07-.33,55.9.24,58,2.71,0,5.46.13,8.5-.1v-3.28c0-11.2.1-22.42,0-33.62-.08-10.31,7.72-15.49,14.93-15a33.18,33.18,0,0,0,3.39-.12,17.66,17.66,0,0,0-.15-7A28.07,28.07,0,0,0,674.07,197.22Z"/></svg>