<svg id="Layer_1" data-name="Layer 1" xmlns="http://www.w3.org/2000/svg" viewBox="0 0 910 300"><defs><style>.cls-1{fill:#c4c6c9;}.cls-2{fill:#88d5ef;}.cls-3{fill:#0a4169;}.cls-4{fill:#353839;}.cls-5{fill:#6b6f72;}</style></defs><path class="cls-1" d="M466.16,173.64c0,11.39,0,22.77,0,34.16,0,3.52.22,7,.36,10.55a11.15,11.15,0,0,0,.23,1.52,6.44,6.44,0,0,0,5.92,5.63c2.1.31,4.2.66,6.3,1a3.34,3.34,0,0,1,2.17,5.33c-.63.87-1.49.81-2.37.78-3.3-.14-6.6-.35-9.91-.39-7.05-.09-14.1-.18-21.15-.12-5.87,0-11.74.29-17.61.48-1.15,0-2.23.08-2.81-1.18a4,4,0,0,1-.06-3.8,2.94,2.94,0,0,1,1.8-1c2.07-.49,4.17-.86,6.26-1.24,3.44-.64,5.19-2.85,5.65-6.17a42,42,0,0,0,.5-5.7q.12-24,.15-48,0-13.46-.05-26.89a47.07,47.07,0,0,0-.46-5.93c-.51-3.79-1.93-5.27-5.66-6-1.73-.32-3.49-.47-5.24-.69-1.95-.25-2.49-.89-2.45-2.91s.82-3,2.59-3.11c4.25-.29,8.5-.7,12.76-.8,10.79-.25,21.59-.56,32.38-.46a71.61,71.61,0,0,1,23.58,3.91c6.89,2.45,12.73,6.34,16.86,12.5,4.57,6.82,5.65,14.42,4.65,22.37-1.35,10.75-7.33,18.17-17,22.75a49.65,49.65,0,0,1-24.44,4.41c-1.33-.08-2-.82-2.2-2.27a2.21,2.21,0,0,1,1.5-2.58c1-.42,2.06-.78,3.06-1.24a20.36,20.36,0,0,0,12.14-14.71c1.75-7.81,1.86-15.6-1-23.21-2.44-6.52-6.65-11.36-13.53-13.46a21.84,21.84,0,0,0-8.95-.7c-2.29.26-3.46,1.3-3.83,3.59a31.09,31.09,0,0,0-.27,4.83q0,19.4,0,38.79Z"/><path class="cls-2" d="M454.85,139c-3.15-7.42-8.89-12.09-16.19-15-2-.81-4.2-1.27-6.3-1.95-1-.32-2.23-.3-2.77-1.58.66-1.53,2.17-1.56,3.46-1.95,7.32-2.21,13.11-6.27,16-13.63s1.89-20.28-7.81-27.62a30.46,30.46,0,0,0-8.53-4.5c-6.94-2.45-14.17-3.25-21.45-3.46-16.46-.47-32.9.26-49.32,1.3-1.92.13-2.6.86-2.69,2.77-.12,2.19.56,3.23,2.36,3.54s3.36.42,5,.76c3.48.74,4.91,2.22,5.39,5.76a45.25,45.25,0,0,1,.49,6.15q.06,36,0,72.08c0,1.32,0,2.65-.11,4-.17,1.68-.42,3.36-.74,5a6,6,0,0,1-4.61,4.83c-1.84.51-3.69,1-5.57,1.3a7,7,0,0,0-4.08,1.76v3.09c1.67,1.56,1.67,1.47,4.17,1.44,9.55-.11,19.1-.2,28.65-.2,3.37,0,6.75.36,10.12.44a153.8,153.8,0,0,0,21.35-.88,70.12,70.12,0,0,0,15.86-3.53A29.68,29.68,0,0,0,454.85,139Zm-58.77-26.16c0-4.7,0-9.39,0-14.1s0-9.26,0-13.88a34.4,34.4,0,0,1,.13-3.52c.28-2.63,1.41-3.93,4-4.21a26.66,26.66,0,0,1,12,1,18.54,18.54,0,0,1,12.3,13.08,28,28,0,0,1,.5,13.52c-1.56,7.5-6.85,12.72-14.43,13.83a86.45,86.45,0,0,1-10.32.42,6.38,6.38,0,0,1-1.73-.28c-1.66-.41-2.21-1-2.35-2.73C396.05,114.91,396.08,113.87,396.08,112.84Zm33.21,49c-1.91,6.24-5.59,10.93-12.1,12.89a21.55,21.55,0,0,1-11.73.15,10.63,10.63,0,0,1-7.58-6.75,24.34,24.34,0,0,1-1.66-8.82c-.11-9.46-.12-18.93-.1-28.39,0-3.22,1-4.15,4.2-4.41,1.39-.12,2.79,0,4.18,0,0-.13,0-.26.05-.39a77.65,77.65,0,0,1,9.31,1.39c9.14,2.45,14.37,8.68,16.2,17.82A33.13,33.13,0,0,1,429.29,161.85Z"/><path class="cls-3" d="M124.93,108.23c-3.43-8.08-9.67-13.17-17.62-16.35-2.22-.88-4.58-1.38-6.86-2.12-1.09-.35-2.43-.32-3-1.72.72-1.66,2.37-1.7,3.77-2.12,8-2.41,14.27-6.83,17.4-14.84S120.66,49,110.1,41a33.63,33.63,0,0,0-9.29-4.9c-7.56-2.66-15.43-3.53-23.35-3.76-17.92-.52-35.82.28-53.7,1.41-2.09.14-2.83.94-2.93,3-.12,2.38.61,3.51,2.58,3.85,1.81.31,3.65.46,5.45.83,3.79.8,5.34,2.42,5.87,6.27a50,50,0,0,1,.53,6.69q.06,39.24.05,78.47c0,1.44,0,2.89-.12,4.32-.18,1.82-.45,3.65-.8,5.44a6.54,6.54,0,0,1-5,5.26c-2,.55-4,1-6.06,1.41a7.7,7.7,0,0,0-4.45,1.92v3.36c1.82,1.7,1.82,1.6,4.55,1.57,10.39-.12,20.79-.22,31.18-.22,3.67,0,7.35.39,11,.48a165.48,165.48,0,0,0,23.24-1,75.7,75.7,0,0,0,17.27-3.84A32.3,32.3,0,0,0,124.93,108.23ZM61,79.75c0-5.12,0-10.23,0-15.35s0-10.08,0-15.11a37.8,37.8,0,0,1,.14-3.84c.31-2.86,1.54-4.27,4.34-4.58a29.2,29.2,0,0,1,13,1A20.2,20.2,0,0,1,91.85,56.16a30.4,30.4,0,0,1,.54,14.71C90.7,79,84.94,84.72,76.68,85.93a95.42,95.42,0,0,1-11.23.46,7.25,7.25,0,0,1-1.89-.31c-1.8-.44-2.4-1.12-2.55-3C60.92,82,61,80.87,61,79.75ZM97.11,133.1C95,139.9,91,145,83.93,147.13a23.38,23.38,0,0,1-12.77.17A11.59,11.59,0,0,1,62.91,140a26.67,26.67,0,0,1-1.81-9.6C61,120.05,61,109.74,61,99.44c0-3.5,1-4.52,4.57-4.8,1.51-.13,3,0,4.55,0,0-.14,0-.29,0-.43,3.39.48,6.86.63,10.14,1.51C90.26,98.36,96,105.15,98,115.1A36.14,36.14,0,0,1,97.11,133.1Z"/><path class="cls-4" d="M690.69,151.22l-4.23-.86a5,5,0,0,1-4.36-4.46,63.08,63.08,0,0,1-.6-7.63q-.07-27.48,0-55a68,68,0,0,1,.53-7.4c.31-2.84,2.1-4.36,4.83-4.88,1.49-.29,3-.65,4.47-.84a1.85,1.85,0,0,0,1.82-2.09,18,18,0,0,0-.43-2.53H650.85a10.13,10.13,0,0,0-.43,1.41c-.3,2.21.15,2.85,2.33,3.31,1.25.26,2.52.44,3.77.73,3.44.77,4.71,2.14,5.13,5.69a51.89,51.89,0,0,1,.4,6q0,28.08,0,56.15a49.89,49.89,0,0,1-.44,6.22c-.42,3.29-1.64,4.54-4.89,5.37-2.06.53-4.12,1.08-6.19,1.6a2.8,2.8,0,0,1-.9-.08,17.83,17.83,0,0,1-10.55-5.2,45.55,45.55,0,0,1-7.65-10.11c-3.55-6.34-6.92-12.79-10.34-19.21-.64-1.2-1.25-2.41-1.79-3.66-.72-1.69-.54-2.13,1.09-3.08,1.38-.81,2.81-1.54,4.15-2.4,8.65-5.5,11.46-14.1,9.27-23.49-2-8.46-7.74-13.61-15.64-16.46a57.18,57.18,0,0,0-19.6-2.92c-8.87,0-17.75.3-26.62.53-3,.08-6.07.31-9.09.56-1.5.13-2.05.88-2.09,2.4s.42,2.23,1.94,2.5c1.25.23,2.53.34,3.79.59,2.8.53,4,1.73,4.41,4.6a47.79,47.79,0,0,1,.46,6.21q0,28.31,0,56.63a55.2,55.2,0,0,1-.42,5.73c-.31,2.86-1.79,4.72-4.73,5.25-1.49.27-3,.65-4.47.86a1.81,1.81,0,0,0-1.76,1.9,17.32,17.32,0,0,0,.33,2.7h40.55a11.56,11.56,0,0,0,.4-1.43c.3-2.11-.24-2.82-2.36-3.25-1.41-.28-2.82-.56-4.22-.88a5.09,5.09,0,0,1-4.15-4.43,30.49,30.49,0,0,1-.49-4.76c-.07-7.2-.06-14.4-.08-21.59,0-.4,0-.8,0-1.2a1.93,1.93,0,0,1,1.6-1.83c4.76-1.4,8.86.42,10.9,4.89,1.49,3.28,2.82,6.63,4.51,9.8,2.51,4.72,5.05,9.45,8,13.92a24.09,24.09,0,0,0,14.8,10.33,45.93,45.93,0,0,0,19,.33,3.32,3.32,0,0,1,2.28.12,5.27,5.27,0,0,0,2.12.14h39.23a10.22,10.22,0,0,0,.57-1.59C693.39,152.39,692.81,151.63,690.69,151.22Zm-78-51.25c-2.15,6.84-6.88,10.4-14,10.45a38.69,38.69,0,0,1-5.49-.29c-2.47-.33-3.15-1.12-3.19-3.64-.07-4.63,0-9.27,0-13.91V77.24c0-.72,0-1.44.08-2.16.25-2.51,1.11-3.34,3.64-3.54,10.68-.84,18.64,5.65,19.9,16.33A28.62,28.62,0,0,1,612.72,100Z"/><path class="cls-4" d="M491.63,92.2c0,12.4,0,24.8,0,37.19,0,3.83.23,7.66.38,11.49a13.32,13.32,0,0,0,.26,1.66,7,7,0,0,0,6.44,6.13c2.29.33,4.58.72,6.86,1.09a3.63,3.63,0,0,1,2.36,5.79c-.68.95-1.62.89-2.58.85-3.59-.14-7.19-.37-10.78-.42-7.68-.1-15.35-.2-23-.14-6.39.06-12.79.32-19.18.53-1.25,0-2.42.08-3.05-1.28a4.29,4.29,0,0,1-.06-4.14,3.24,3.24,0,0,1,2-1.12c2.26-.53,4.54-.94,6.82-1.36,3.74-.69,5.65-3.09,6.15-6.71a46.05,46.05,0,0,0,.54-6.2q.13-26.16.17-52.31,0-14.64-.06-29.27a49.75,49.75,0,0,0-.5-6.45c-.55-4.13-2.1-5.75-6.16-6.5-1.88-.35-3.8-.52-5.7-.76-2.13-.27-2.72-1-2.67-3.16s.89-3.26,2.82-3.39c4.63-.31,9.25-.76,13.88-.87,11.75-.27,23.51-.61,35.26-.5a78.32,78.32,0,0,1,25.67,4.25c7.5,2.67,13.86,6.91,18.36,13.62,5,7.42,6.15,15.7,5.06,24.35-1.47,11.7-8,19.78-18.5,24.77a53.89,53.89,0,0,1-26.61,4.79c-1.45-.08-2.18-.89-2.39-2.47a2.39,2.39,0,0,1,1.63-2.8c1.11-.46,2.24-.86,3.33-1.35a22.18,22.18,0,0,0,13.22-16c1.9-8.51,2-17-1.07-25.28-2.65-7.09-7.24-12.36-14.73-14.65a23.76,23.76,0,0,0-9.74-.76c-2.49.28-3.76,1.42-4.17,3.91a32.82,32.82,0,0,0-.29,5.25q0,21.12,0,42.23Z"/><path class="cls-4" d="M764.4,65.58h33.67a9.77,9.77,0,0,1,.54,1.71c.24,1.8-.36,2.55-2.18,2.95-1.25.27-2.52.47-3.74.84-2.65.8-4.53,2.48-5,5.28a83.79,83.79,0,0,0-1.3,10.45c-.29,7.75-.38,15.51-.38,23.26q0,21.36.28,42.71a3.32,3.32,0,0,1-2.19,3.52,16.93,16.93,0,0,1-1.79.69c-3.52,1.12-3.66,1-5.91-2-5-6.63-10-13.26-15.25-19.75q-17.43-21.69-35-43.25c-1.54-1.9-3.25-3.67-4.88-5.5l-.56.13a21.06,21.06,0,0,0-.53,3.11c-.09,2.72-.06,5.44-.06,8.16,0,10.08-.12,20.16.09,30.23.12,5.34.79,10.67,1.31,16,.34,3.46,2.48,5.44,5.76,6.22a22.67,22.67,0,0,0,4.71.86c2.11,0,2.78.83,2.52,3.33a6.67,6.67,0,0,1-.43,1.36H700.18a12.28,12.28,0,0,1-.47-2.37c0-1.43.52-1.92,1.94-2.23s2.66-.56,4-.92c2.79-.77,4.68-2.51,5.07-5.44a97.58,97.58,0,0,0,1.24-11.9c.19-15.67.16-31.35.19-47,0-2.32,0-4.64-.12-6.95-.26-4.66-2.22-7-6.73-8.09-1.47-.36-3-.53-4.48-.81s-1.92-.91-1.74-2.75c.15-1.53.57-2,2.08-2,3.43.07,6.87.31,10.31.31,5.75,0,11.51-.17,17.26-.26h1.5c2.71,7,7.45,12.69,12.15,18.33,10.28,12.36,20.71,24.59,31.09,36.87,1.18,1.39,2.46,2.68,4,4.3a10.05,10.05,0,0,0,.73-4.19c0-7.68.12-15.36,0-23-.09-5.43-.46-10.86-.8-16.29a41.84,41.84,0,0,0-.81-5,6.17,6.17,0,0,0-4.63-5,49.39,49.39,0,0,0-5.14-1.09C763.59,69.8,763.07,68.76,764.4,65.58Z"/><path class="cls-3" d="M310.4,156a14.23,14.23,0,0,1-.45-2.33c0-1.54.52-2.13,2.07-2.37,2.21-.35,4.43-.63,6.62-1,3.36-.61,4.7-2,5.09-5.4a60.1,60.1,0,0,0,.42-6.7q0-27.46,0-54.93a58,58,0,0,0-.4-6.46c-.39-3.66-1.63-5-5.28-5.82-1.24-.3-2.5-.53-3.74-.84-1.49-.39-1.93-1.16-1.69-2.85.2-1.47.63-1.9,2.2-1.87,3.51.07,7,.32,10.54.32q24,.06,48,0c2.22,0,4.44-.19,6.89-.3.23,1.92.47,3.72.64,5.53q.66,7,1.25,14.09c.14,1.68-.31,2.28-1.75,2.62a2.82,2.82,0,0,1-3.42-1.42c-.59-1.4-1.13-2.82-1.62-4.25-2.23-6.48-7-9.56-13.61-9.89-5.26-.26-10.55-.18-15.82-.15-2,0-2.52.59-2.74,2.57a19.49,19.49,0,0,0-.08,2.16q0,12.12,0,24.23c0,4.19.19,4.38,4.26,4.37s7.84,0,11.76-.06c4.25-.11,5.85-1.42,7-5.5.36-1.3.6-2.64.9-4,.43-1.9,3.28-2.94,4.68-1.62a2.59,2.59,0,0,1,.46,1.73c-.06,3-.3,6.08-.29,9.11,0,5.28.17,10.55.27,15.83,0,.63.08,1.28,0,1.91a1.85,1.85,0,0,1-.42,1.06c-1.38,1.33-4.27.39-4.72-1.51s-.78-3.59-1.32-5.34a5.41,5.41,0,0,0-5.23-4.21c-4.94-.19-9.9-.29-14.85-.27-1.88,0-2.36.61-2.47,2.53-.1,1.75-.07,3.52-.06,5.27.05,6,.07,12,.21,18a23.91,23.91,0,0,0,.76,5,6.84,6.84,0,0,0,6.08,5.66c3.72.44,7.47.59,11.22.76,1.51.07,3-.16,4.55-.21a14.84,14.84,0,0,0,12.1-6.29,97.41,97.41,0,0,0,5.15-8.35c1-1.71,1.9-2.21,3.67-1.81,1.4.32,1.95.9,1.78,2.36a45.63,45.63,0,0,1-1,6.38c-1.06,4.09-2.25,8.16-3.53,12.19-.73,2.28-.86,2.23-3.27,2.2-15.43-.15-30.86-.35-46.29-.41-7.27,0-14.55.21-21.82.33Z"/><path class="cls-3" d="M273.48,65.61h33.78A15.56,15.56,0,0,1,307.7,68a1.89,1.89,0,0,1-1.78,2.14,32,32,0,0,0-3.94,1c-2.93.88-4.94,2.7-5.33,5.83-.53,4.27-1.19,8.56-1.29,12.86-.24,9.67,0,19.35-.27,29a89.34,89.34,0,0,1-1.43,14c-2.45,13.11-10.44,21-23.43,23.87a55.84,55.84,0,0,1-25.9-.55c-12.22-3.12-19-11.23-20.85-23.52a92,92,0,0,1-1-12.41c-.13-13-.05-25.91-.1-38.86a46.42,46.42,0,0,0-.43-5.26A5.44,5.44,0,0,0,217.38,71c-1.48-.32-3-.61-4.45-1s-1.78-1.08-1.62-2.71c.13-1.46.58-1.93,2.15-1.89,3.28.07,6.56.33,9.83.31,8.39,0,16.79-.17,25.18-.26,1.2,0,2.39,0,3.85,0a17.87,17.87,0,0,1,.39,2.53,1.84,1.84,0,0,1-1.82,2.08c-1.5.19-3,.54-4.46.88a4.76,4.76,0,0,0-4,4.26,74.47,74.47,0,0,0-.67,8.82c0,12.56,0,25.11.11,37.67A48.48,48.48,0,0,0,244,136.6c1.91,5.83,5.32,10.38,11.31,12.51a25.93,25.93,0,0,0,15.8.55,18.31,18.31,0,0,0,11.38-9.3,33.51,33.51,0,0,0,4.22-14.88c.39-9.26.53-18.53.49-27.8,0-5.91-.42-11.82-.93-17.71-.56-6.48-2.34-8.22-8.77-9.4l-2.12-.41c-2.31-.46-2.87-1.33-2.32-3.65A4.69,4.69,0,0,1,273.48,65.61Z"/><path class="cls-4" d="M866.21,155.89H820.69a10.24,10.24,0,0,1-.51-1.94c-.11-1.76.52-2.45,2.28-2.64s3.5-.34,5.25-.55c4-.48,5.38-1.64,5.93-5.62a57.76,57.76,0,0,0,.41-7.9q0-30.59,0-61.19c0-3.91-.2-4.1-4-4.11-3,0-5.92,0-8.88,0a12.8,12.8,0,0,0-11.53,6.56c-1.37,2.33-2.47,4.82-3.64,7.28-.92,1.93-2.33,2.51-4.21,1.61a1.67,1.67,0,0,1-1.1-2.27c2-6.68,2.92-13.58,4-20.46.14-1,.14-2,1.4-2.19s2.36-.19,3,1.3a3,3,0,0,0,2.78,1.58c1.75.16,3.5.38,5.25.38q28.8,0,57.6,0c1.43,0,2.87-.19,4.3-.31A5,5,0,0,0,883,63.3a2.51,2.51,0,0,1,3-.69c.88.38.78,1.08.66,1.82-.35,2.21-.83,4.41-1,6.63-.36,4.62-.59,9.25-.81,13.88-.1,2.24-1.61,3.37-3.77,2.74-.91-.27-1.18-1-1.43-1.76-.61-2-1.18-4-1.9-5.93-2-5.43-6-8.06-11.79-8-3.12,0-6.24,0-9.36,0-2.36,0-2.93.66-3.07,3,0,.24,0,.48,0,.72q0,32.5.06,65a35.21,35.21,0,0,0,.46,5c.36,2.55,1.71,4.27,4.38,4.7a52.29,52.29,0,0,0,5.69.81c2.3.1,2.53,1,2.46,2.9A12.83,12.83,0,0,1,866.21,155.89Z"/><path class="cls-3" d="M178.31,65.46a15,15,0,0,1,.42,2.15c.07,1.77-.3,2.21-2.06,2.55-1.41.28-2.82.53-4.23.8a5.07,5.07,0,0,0-4.4,4.71,42.23,42.23,0,0,0-.48,5.49c-.05,10.08-.05,20.16-.06,30.23,0,8.32,0,16.64.09,25a34.67,34.67,0,0,0,.89,6.87,6.79,6.79,0,0,0,6.09,5.66c3.72.45,7.47.6,11.22.77,1.59.07,3.19-.17,4.79-.22a14.26,14.26,0,0,0,11.72-6c2.08-2.92,3.83-6.08,5.7-9.15,1-1.65,2-2,3.79-1.37,1.4.54,1.81,1,1.49,2.53-1,4.84-2.11,9.67-3.31,14.47-.52,2.07-1.4,4.05-2.1,6-4.15,0-8.06,0-12,0-13.12-.07-26.24-.21-39.35-.22-6.24,0-12.48.23-18.72.34-1.81,0-2.18-.3-2.41-1.89-.28-1.95.22-2.57,2.19-2.84s3.79-.55,5.68-.86a4.87,4.87,0,0,0,4.28-4.51,38.38,38.38,0,0,0,.49-5.24c.07-6.64.07-13.28.07-19.92q0-19.68-.06-39.36a44.12,44.12,0,0,0-.52-6,4.91,4.91,0,0,0-4.3-4.51c-1.73-.31-3.47-.56-5.2-.86a2.14,2.14,0,0,1-1.82-2.58c.15-1.4.75-2.1,2.1-2.07,3.52.06,7,.33,10.55.31,8.64,0,17.28-.18,25.91-.28Z"/><path class="cls-5" d="M610.72,201.24H602c-.25-1-.5-1.87-.72-2.78-2-8.53-8.89-14.65-18.28-14.74a38.61,38.61,0,0,0-8.8.71c-6.54,1.47-11,5.62-13.58,11.76A36.26,36.26,0,0,0,558,206.38a61.69,61.69,0,0,0,1.2,22.85,30.64,30.64,0,0,0,1.91,5.15,19,19,0,0,0,14.24,11,34.89,34.89,0,0,0,15.45-.4,15.46,15.46,0,0,0,11.48-10.53,35.79,35.79,0,0,0,1.77-10.35c.09-2.24-.11-2.41-2.47-2.42H574.13v-5.81h38.38c.16.23.34.36.33.48-.07,4.87.29,9.79-.35,14.58-1.17,8.73-6.42,14.6-14.41,18a37.16,37.16,0,0,1-13.73,3c-4.8.14-9.58.14-14.27-1.17-10.55-3-17-10-20.17-20.31-2-6.58-2.31-13.36-1.94-20.18a42.62,42.62,0,0,1,3.71-15.77,27.19,27.19,0,0,1,19-15.81,41.1,41.1,0,0,1,24,1.06c8.27,3,13.67,8.65,15.57,17.38a17.2,17.2,0,0,1,.27,1.89C610.66,199.62,610.67,200.25,610.72,201.24Z"/><path class="cls-5" d="M130.06,250.9c-3.55,0-6.51-.07-9.46,0-1.37,0-2-.79-2.69-1.66l-15-19q-5.06-6.41-10.12-12.79c-.48-.61-.9-1.24-1.63-2.25,3.45,0,6.46.12,9.45,0a38.21,38.21,0,0,0,7.33-.95c6.81-1.72,10.47-6.56,10.51-13.59a20.32,20.32,0,0,0-.22-3.82c-1.2-6.66-5.64-10.68-12.82-11.64s-14.21-.39-21.32-.43a3.13,3.13,0,0,0-.9.31C83.09,186,83,187,83,188q0,29.86,0,59.74v3H74.29a17.83,17.83,0,0,1-.31-2.45q0-33.48,0-66.94a23.49,23.49,0,0,1,.24-2.45c1-.06,1.76-.15,2.54-.15q12.83,0,25.67,0a35,35,0,0,1,12.87,2.37c8.36,3.31,12.81,9.92,12.88,18.9,0,6.39-1.77,12-6.75,16.25-3.66,3.13-8.06,4.43-12.76,4.89-.71.07-1.43.09-2.15.16-.14,0-.27.14-.71.4.48.69.89,1.41,1.41,2l21.07,24.9C128.8,249.24,129.25,249.87,130.06,250.9Z"/><path class="cls-5" d="M833.26,219.37a30.71,30.71,0,0,0-3.8-13.25,20.48,20.48,0,0,0-13.28-10.22,29,29,0,0,0-9.27-.75c-5.15.36-9.9,1.77-13.59,5.68a8.36,8.36,0,0,1-1.45.91c-.16-2-.29-3.7-.44-5.52h-7c-.56,2.64-.46,72.4.07,74.22h8v-3c0-6.48,0-13,0-19.44,0-.8-.31-1.75.62-2.35a51.54,51.54,0,0,0,4.67,3.39c5.56,3.15,11.52,3.54,17.64,2.14,8.64-2,13.73-7.66,16.35-15.87C833.49,230.08,833.62,224.74,833.26,219.37Zm-9.86,16c-2.55,7.81-8.23,10.85-16.53,10.33a18.7,18.7,0,0,1-3.08-.42c-5.59-1.25-8.84-5-10.28-10.28a43.21,43.21,0,0,1,.06-23.2c1.46-5.21,4.73-8.83,10.2-10.06a19.23,19.23,0,0,1,9,0,14,14,0,0,1,9.78,8.46,32.68,32.68,0,0,1,2.37,13.91A33.65,33.65,0,0,1,823.4,235.35Z"/><path class="cls-5" d="M464.71,201.23a10,10,0,0,0,1.06-.87c2.75-3,6.32-4.17,10.18-4.83a31.82,31.82,0,0,1,13.53.55c6.2,1.63,10.51,5.27,11.89,11.79a14.43,14.43,0,0,1,.26,2.86q0,18.95,0,37.9c0,.63-.09,1.25-.16,2.09a62,62,0,0,1-8.1.14c-.06-1.11-.15-2-.15-3,0-11.19,0-22.39,0-33.58a22,22,0,0,0-.43-4.28,10.38,10.38,0,0,0-8.9-8.52,22.9,22.9,0,0,0-9.25.43,13.67,13.67,0,0,0-10.51,13.41c.18,10.79,0,21.59,0,32.38v3h-8.21a26.84,26.84,0,0,1-.3-2.9q-.13-27.58-.22-55.16,0-5.52,0-11c0-.85.09-1.71.14-2.76h8.57c0,2.48.07,4.92.09,7.37s0,5,0,7.43v7.4Z"/><path class="cls-5" d="M351.07,197.51a1.32,1.32,0,0,0-1.52-1.43c-1.19,0-2.39,0-3.59,0-2,0-2.15.17-2.22,2.2-.06,1.65-.1,3.3-.14,4.95l-.62.15c-.35-.41-.73-.8-1.05-1.23a16.25,16.25,0,0,0-9-6.06,25.78,25.78,0,0,0-10.89-.67c-9.05,1.3-14.91,6.35-18.12,14.75a34.4,34.4,0,0,0-2.06,10.06c-.48,7,.33,13.89,3.69,20.24a20.11,20.11,0,0,0,12.36,10.31,29.44,29.44,0,0,0,15.14.3,13.75,13.75,0,0,0,8.81-6.13c.34-.51.76-1,1.13-1.45l.49.06c.14,2.38.29,4.75.44,7.22a37.11,37.11,0,0,0,7,0c.07-1.21.16-2.16.16-3.1V199.43C351.11,198.79,351.09,198.15,351.07,197.51Zm-9.52,38.18c-2.52,7.54-8.23,10.56-16.27,10-7.57-.54-11.83-5.07-13.72-12a40.38,40.38,0,0,1,.1-21.32c1.46-5.38,4.67-9.25,10.34-10.56a20.47,20.47,0,0,1,10.87.35,12.54,12.54,0,0,1,7.68,6.79,26.89,26.89,0,0,1,2.4,9.47c.15,1.66,0,3.35,0,5A35.3,35.3,0,0,1,341.55,235.69Z"/><path class="cls-5" d="M148.29,226q16.19,0,32.38,0H184c0-2.11.11-3.85.1-5.58a30.61,30.61,0,0,0-3.13-14.14,19.22,19.22,0,0,0-11.52-9.88,25.87,25.87,0,0,0-14.17-.54,21.53,21.53,0,0,0-15.63,13.61,37.49,37.49,0,0,0,0,28.31A21,21,0,0,0,154.89,251a24.92,24.92,0,0,0,11.61.38c8.32-1.91,14.21-6.64,17-14.89a5.24,5.24,0,0,0,.14-3.87h-7.46c-.53,1.51-1,3-1.58,4.48-1.69,4.18-4.56,7.18-9,8.23a15.29,15.29,0,0,1-16.52-6.5,22.94,22.94,0,0,1-3.45-9.86C145.23,226.26,145.48,226,148.29,226Zm12.29-24.72c5.53-.17,10.38,1.86,13.07,7.87a20.17,20.17,0,0,1,1.74,10.59c-1,.09-1.75.22-2.53.22q-12.35,0-24.69,0a13.88,13.88,0,0,1-1.44-.07c-.85-.09-1.18-.6-1.24-1.45C144.86,210.17,152.31,201.5,160.58,201.24Z"/><path class="cls-5" d="M293.06,225.93a5.53,5.53,0,0,0,.38-1.18c.17-5.3,0-10.56-1.85-15.62-2.23-6-6.13-10.44-12.29-12.6a25.44,25.44,0,0,0-14.86-.66c-8.05,2-13.2,7.24-16,14.86a38.45,38.45,0,0,0-.7,23.6c2.38,8.78,7.87,14.67,16.94,16.79a24.33,24.33,0,0,0,11.16.27c8.42-1.94,14.34-6.73,17.07-15.11a5.36,5.36,0,0,0,.06-3.78h-6.6c-.93,0-1.15.71-1.39,1.4-.47,1.36-.84,2.76-1.44,4.06a12.57,12.57,0,0,1-12.4,7.81,15,15,0,0,1-13.6-8.35A21.07,21.07,0,0,1,255,225.93Zm-38.16-7.78c.57-5.9,2.61-11.05,7.69-14.53,6.57-4.52,17.87-3,21.11,7.07a19.35,19.35,0,0,1,1,9c-1,.07-1.82.19-2.68.19q-12.11,0-24.22,0l-1.2,0C255.41,219.9,254.79,219.39,254.9,218.15Z"/><path class="cls-5" d="M708.72,212.17c-2.59-8.76-8.35-14.33-17.42-16.28a34.66,34.66,0,0,0-12.84-.35c-7.55,1.19-13.48,4.73-17.18,11.6-2.72,5.06-3.58,10.54-3.88,16.25A96.71,96.71,0,0,0,659,233.78c2.42,9.43,8.37,15.44,18,17.41a35.09,35.09,0,0,0,12.14.29c9.72-1.41,16.3-6.58,19.34-15.94A38.75,38.75,0,0,0,708.72,212.17Zm-9.8,24.69c-2.71,5.34-8.43,9.65-16.92,8.75-7.29-.77-11.83-4.89-14.13-11.55a32.05,32.05,0,0,1,0-21.18c1.9-5.63,5.57-9.68,11.56-11.09,8.48-2,16.75,1.25,20.29,10.12a32.94,32.94,0,0,1,2,11.51A30.56,30.56,0,0,1,698.92,236.86Z"/><path class="cls-5" d="M192.16,235.44h7.71c.16.48.32.84.41,1.21,1.13,5.13,4.75,7.62,9.5,8.68a24,24,0,0,0,13.21-1c2.83-1,5-2.73,5.82-5.86.88-3.57-.25-6.8-3.58-8.59a38.92,38.92,0,0,0-7.8-2.92c-3.45-1-7-1.51-10.47-2.5a37.74,37.74,0,0,1-7.1-2.81c-7.89-4.14-8.34-15.09-2.83-20.58a20.41,20.41,0,0,1,11-5.44,36.32,36.32,0,0,1,16.83.89,17.22,17.22,0,0,1,8.53,5.09,14.75,14.75,0,0,1,3.64,9.92c-2.62,0-5.07,0-7.52-.05a1.57,1.57,0,0,1-1.09-1c-1.08-7.25-8.65-9.81-15.49-9.15a15.25,15.25,0,0,0-6.19,1.66,7.66,7.66,0,0,0-4.27,6.5,5.93,5.93,0,0,0,3.14,6,30,30,0,0,0,6.17,2.55c3.9,1.12,7.91,1.89,11.82,3a43.85,43.85,0,0,1,6.94,2.59c10.28,4.87,9.2,17.51,2.36,22.93a23.86,23.86,0,0,1-10.9,4.67,38.21,38.21,0,0,1-17.78-.79,20,20,0,0,1-7-3.57,14.08,14.08,0,0,1-5.42-9.8,4.32,4.32,0,0,1,0-.95A3.13,3.13,0,0,1,192.16,235.44Z"/><path class="cls-5" d="M722.67,196.21h8.2c0,1,.13,2,.13,2.91,0,11.19,0,22.38,0,33.57a20.42,20.42,0,0,0,.4,4.28c1.09,5,4.4,7.81,9.4,8.56a21.48,21.48,0,0,0,10.13-.95,13.2,13.2,0,0,0,9.22-12.89c-.13-10.87,0-21.74,0-32.62v-2.81a50.4,50.4,0,0,1,7.93-.1c.66,2,.75,52.05.11,54.58h-8v-7.52c-.71.7-1,.9-1.19,1.2-2,4.15-5.64,6-9.85,6.85a31.14,31.14,0,0,1-14.71-.44c-5.88-1.62-10.09-5.11-11.48-11.31a22.24,22.24,0,0,1-.4-4.76q0-17.87,0-35.74C722.52,198.16,722.61,197.3,722.67,196.21Z"/><path class="cls-5" d="M435.81,232.15h7.8c.13.31.33.53.3.73-1.06,9.49-6,17.09-17.65,18.6a32.92,32.92,0,0,1-12.82-.57,18.7,18.7,0,0,1-12.31-9.9,31,31,0,0,1-3.25-11.95c-.49-6-.43-12,1.29-17.84,2.36-8.07,7.29-13.54,15.73-15.41a29,29,0,0,1,15.59.68c7.13,2.37,11.14,7.45,12.52,14.72.23,1.24.31,2.5.5,4-2.89.24-5.56.12-8.35.09-.19-.76-.3-1.37-.5-2a38.07,38.07,0,0,0-2.09-5.83c-2.4-4.46-6.87-6.73-12.5-6.25-6.34.53-10.19,4.13-12.16,10a38.91,38.91,0,0,0-1.58,16.57,28.52,28.52,0,0,0,2.6,9.91c3.56,7.25,10.77,9.54,18,7.14,3.66-1.22,5.92-4,7.24-7.52C434.79,235.72,435.23,234,435.81,232.15Z"/><path class="cls-5" d="M374.9,250.79H367c-.55-1.78-.67-51.73-.13-54.5,2.14-.43,4.34-.16,6.88-.18.09,2.3.17,4.46.28,7.12A8,8,0,0,0,375.2,202c1.93-3.73,5.19-5.57,9.15-6.22,2.57-.42,5.2-.52,8-.78a26.73,26.73,0,0,1,.09,7h-3.61c-8,0-13.39,5.13-13.76,13.15-.1,2.16,0,4.32,0,6.48q0,13.05,0,26.12C375,248.63,375,249.58,374.9,250.79Z"/><path class="cls-5" d="M634.59,202.88a3.9,3.9,0,0,0,.58-.72c1.83-3.79,5-5.7,9-6.38a26.37,26.37,0,0,1,8-.55,16.5,16.5,0,0,1,.14,6.58,29.58,29.58,0,0,1-3.19.11c-6.78-.47-14.14,4.41-14.06,14.12.09,10.55,0,21.11,0,31.66v3.09c-2.86.21-5.45.08-8,.09-.54-1.95-.72-50.76-.23-54.59a20.28,20.28,0,0,1,6-.07c.33,0,.76.78.83,1.24a27.55,27.55,0,0,1,.08,2.88c0,.84.14,1.68.21,2.52Z"/></svg>