<svg xmlns="http://www.w3.org/2000/svg" xmlns:xlink="http://www.w3.org/1999/xlink" width="61" height="60.891" viewBox="0 0 61 60.891"><defs><filter id="a" x="0" y="0" width="61" height="60.891" filterUnits="userSpaceOnUse"><feOffset input="SourceAlpha"/><feGaussianBlur stdDeviation="3" result="b"/><feFlood flood-color="#141230" flood-opacity="0.529"/><feComposite operator="in" in2="b"/><feComposite in="SourceGraphic"/></filter></defs><g transform="translate(10 10)"><g transform="matrix(1, 0, 0, 1, -10, -10)" filter="url(#a)"><ellipse cx="20" cy="19.945" rx="20" ry="19.945" transform="translate(10.5 10.5)" fill="none" stroke="#fff" stroke-width="3"/></g><path d="M5.862,14.5,24.507,7.312c.865-.313,1.621.211,1.341,1.52l0,0L22.675,23.786c-.235,1.06-.865,1.318-1.747.819l-4.834-3.563-2.332,2.246a1.219,1.219,0,0,1-.975.475l.343-4.92,8.96-8.094c.39-.343-.087-.537-.6-.195L10.416,17.526,5.643,16.037C4.607,15.708,4.585,15,5.862,14.5Z" transform="translate(4.117 4.775)" fill="#fff"/></g></svg>