<svg xmlns="http://www.w3.org/2000/svg" xmlns:xlink="http://www.w3.org/1999/xlink" width="61" height="60.891" viewBox="0 0 61 60.891"><defs><filter id="a" x="0" y="0" width="61" height="60.891" filterUnits="userSpaceOnUse"><feOffset input="SourceAlpha"/><feGaussianBlur stdDeviation="3" result="b"/><feFlood flood-color="#1e1b40" flood-opacity="0.529"/><feComposite operator="in" in2="b"/><feComposite in="SourceGraphic"/></filter></defs><g transform="translate(10.5 10.5)"><g transform="matrix(1, 0, 0, 1, -10.5, -10.5)" filter="url(#a)"><ellipse cx="20" cy="19.945" rx="20" ry="19.945" transform="translate(10.5 10.5)" fill="none" stroke="#fff" stroke-width="3"/></g><g transform="translate(10 13.158)"><path d="M102.93,353.274a4.056,4.056,0,0,1-3.593-2.147,3.011,3.011,0,0,0-.9-1.012,1.347,1.347,0,0,0-.877-.288l-.174-1.975a3.27,3.27,0,0,1,2.154.616,4.976,4.976,0,0,1,1.5,1.646,2.193,2.193,0,0,0,1.272,1.088,2.8,2.8,0,0,0,1.958-.229l.78,1.822A5.382,5.382,0,0,1,102.93,353.274Zm0,0" transform="translate(-97.386 -331.847)" fill="#fff"/><path d="M123.648,117.794c-.694,1.844-2.439,4.183-6.859,4.837.575.852,1.269,1.308,1.249,3.093v6.423a16.33,16.33,0,0,1-3.965.5,15.8,15.8,0,0,1-3.9-.5v-6.5a4.157,4.157,0,0,1,1.183-3.013c-4.421-.654-6.165-2.994-6.859-4.837a7.774,7.774,0,0,1,1.19-7.454c.04-.04.1-.139.079-.2a6.447,6.447,0,0,1,.2-4.341c.852.258.991-.258,3.747,1.427l.476.278c.2.119.139.04.337.04a13.445,13.445,0,0,1,3.548-.5,14.122,14.122,0,0,1,3.608.5l.139.02a.336.336,0,0,0,.139-.059c3.429-2.082,3.31-1.408,4.242-1.7a6.669,6.669,0,0,1,.179,4.341c-.1.3,2.974,3.112,1.269,7.652Zm0,0" transform="translate(-103.591 -105.801)" fill="#fff"/><path d="M265.575,117.794c-.694,1.844-2.439,4.183-6.859,4.837.575.852,1.269,1.308,1.249,3.093v6.423a16.331,16.331,0,0,1-3.965.5V107.05a14.126,14.126,0,0,1,3.608.5l.139.02a.335.335,0,0,0,.139-.059c3.429-2.082,3.31-1.408,4.242-1.7a6.668,6.668,0,0,1,.178,4.341c-.1.3,2.974,3.112,1.269,7.652Zm0,0" transform="translate(-245.518 -105.801)" fill="#fff"/></g></g></svg>