<svg xmlns="http://www.w3.org/2000/svg" xmlns:xlink="http://www.w3.org/1999/xlink" width="61" height="60.891" viewBox="0 0 61 60.891"><defs><filter id="a" x="0" y="0" width="61" height="60.891" filterUnits="userSpaceOnUse"><feOffset input="SourceAlpha"/><feGaussianBlur stdDeviation="3" result="b"/><feFlood flood-color="#141230" flood-opacity="0.529"/><feComposite operator="in" in2="b"/><feComposite in="SourceGraphic"/></filter></defs><g transform="translate(10.5 10.5)"><path d="M6.28,17.151a.556.556,0,0,1-.862.546L.526,15.251A.889.889,0,0,1,.153,14.9.928.928,0,0,1,0,14.412V2.452c0-.446.268-.648.873-.346L6.249,4.792c.078.078.02-.456.031,12.359ZM6.954,5.9l5.617,9.086L6.954,12.2Zm11.9.189V17.151a.6.6,0,0,1-.148.425.513.513,0,0,1-.4.163.993.993,0,0,1-.494-.137L13.17,15.293Zm-.031-1.259q0,.032-2.7,4.4T12.96,14.349L8.857,7.7l3.408-5.529a.638.638,0,0,1,.821-.231L18.778,4.77a.067.067,0,0,1,.042.063Z" transform="translate(11 10.127)" fill="#fff"/><g transform="matrix(1, 0, 0, 1, -10.5, -10.5)" filter="url(#a)"><ellipse cx="20" cy="19.945" rx="20" ry="19.945" transform="translate(10.5 10.5)" fill="none" stroke="#fff" stroke-width="3"/></g></g></svg>