<svg xmlns="http://www.w3.org/2000/svg" xmlns:xlink="http://www.w3.org/1999/xlink" width="61" height="60.891" viewBox="0 0 61 60.891"><defs><filter id="a" x="0" y="0" width="61" height="60.891" filterUnits="userSpaceOnUse"><feOffset input="SourceAlpha"/><feGaussianBlur stdDeviation="3" result="b"/><feFlood flood-color="#141230" flood-opacity="0.529"/><feComposite operator="in" in2="b"/><feComposite in="SourceGraphic"/></filter></defs><g transform="translate(-835 -268)"><path d="M19.385,7.754c.014.192.014.384.014.576a12.513,12.513,0,0,1-12.6,12.6A12.513,12.513,0,0,1,0,18.941,9.161,9.161,0,0,0,1.069,19a8.868,8.868,0,0,0,5.5-1.892,4.436,4.436,0,0,1-4.14-3.071,5.584,5.584,0,0,0,.836.069,4.683,4.683,0,0,0,1.165-.151A4.429,4.429,0,0,1,.877,9.6V9.55a4.46,4.46,0,0,0,2,.562A4.435,4.435,0,0,1,1.508,4.19a12.587,12.587,0,0,0,9.13,4.634,5,5,0,0,1-.11-1.014,4.432,4.432,0,0,1,7.664-3.03A8.718,8.718,0,0,0,21,3.71a4.416,4.416,0,0,1-1.947,2.44,8.877,8.877,0,0,0,2.55-.685,9.519,9.519,0,0,1-2.221,2.289Z" transform="translate(855 286.619)" fill="#fff"/><g transform="matrix(1, 0, 0, 1, 835, 268)" filter="url(#a)"><ellipse cx="20" cy="19.945" rx="20" ry="19.945" transform="translate(10.5 10.5)" fill="none" stroke="#fff" stroke-width="3"/></g></g></svg>