<svg xmlns="http://www.w3.org/2000/svg" xmlns:xlink="http://www.w3.org/1999/xlink" width="61" height="60.891" viewBox="0 0 61 60.891"><defs><filter id="a" x="0" y="0" width="61" height="60.891" filterUnits="userSpaceOnUse"><feOffset input="SourceAlpha"/><feGaussianBlur stdDeviation="3" result="b"/><feFlood flood-color="#141230" flood-opacity="0.529"/><feComposite operator="in" in2="b"/><feComposite in="SourceGraphic"/></filter></defs><g transform="translate(-895 -268)"><path d="M19.493,6.572A2.367,2.367,0,0,0,17.827,4.9a55.932,55.932,0,0,0-7.359-.4,55.932,55.932,0,0,0-7.359.4A2.367,2.367,0,0,0,1.444,6.572a24.828,24.828,0,0,0-.394,4.563A24.828,24.828,0,0,0,1.444,15.7a2.332,2.332,0,0,0,1.665,1.649,55.932,55.932,0,0,0,7.359.4,55.932,55.932,0,0,0,7.359-.4A2.332,2.332,0,0,0,19.493,15.7a24.828,24.828,0,0,0,.394-4.563,24.828,24.828,0,0,0-.394-4.563ZM8.542,13.936v-5.6l4.923,2.8-4.923,2.8Z" transform="translate(914.95 287.5)" fill="#fff"/><g transform="matrix(1, 0, 0, 1, 895, 268)" filter="url(#a)"><ellipse cx="20" cy="19.945" rx="20" ry="19.945" transform="translate(10.5 10.5)" fill="none" stroke="#fff" stroke-width="3"/></g></g></svg>