<svg xmlns="http://www.w3.org/2000/svg" width="49" height="49" viewBox="0 0 49 49">
  <g id="Group_4413" data-name="Group 4413" transform="translate(-122 -821)">
    <circle id="Ellipse_11" data-name="Ellipse 11" cx="24.5" cy="24.5" r="24.5" transform="translate(122 821)" fill="#ebb42e"/>
    <path id="Path_2877" data-name="Path 2877" d="M186.642,134.122l4.906,4.906a.452.452,0,0,0,.639,0l2.586-2.586a.452.452,0,0,0,0-.639l-8.13-8.132a.452.452,0,0,0-.639,0l-8.127,8.129a.452.452,0,0,0,0,.639l2.586,2.586a.452.452,0,0,0,.639,0l4.9-4.9A.452.452,0,0,1,186.642,134.122Z" transform="translate(-40.242 703.462)" fill="#fff"/>
    <path id="Path_2878" data-name="Path 2878" d="M130.279,228.418,127.694,231a.452.452,0,0,0,0,.639l2.586,2.586a.452.452,0,0,0,.639,0l2.586-2.586a.452.452,0,0,0,0-.639l-2.586-2.586A.452.452,0,0,0,130.279,228.418Z" transform="translate(4.439 613.76)" fill="#fff"/>
    <path id="Path_2879" data-name="Path 2879" d="M186.608,289.943l8.132-8.133a.452.452,0,0,0,0-.639l-2.587-2.585a.452.452,0,0,0-.639,0l-4.906,4.906a.452.452,0,0,1-.639,0l-4.9-4.9a.452.452,0,0,0-.638,0l-2.589,2.583a.452.452,0,0,0,0,.639l8.132,8.133A.452.452,0,0,0,186.608,289.943Z" transform="translate(-40.208 569.092)" fill="#fff"/>
    <path id="Path_2880" data-name="Path 2880" d="M331.744,228.432l-2.586,2.586a.452.452,0,0,0,0,.639l2.586,2.586a.452.452,0,0,0,.639,0l2.586-2.586a.452.452,0,0,0,0-.639l-2.586-2.586A.452.452,0,0,0,331.744,228.432Z" transform="translate(-174.939 613.747)" fill="#fff"/>
    <path id="Path_2881" data-name="Path 2881" d="M233.886,230.608l-2.635-2.635a.452.452,0,0,0-.639,0l-2.635,2.635a.452.452,0,0,0,0,.639l2.635,2.635a.452.452,0,0,0,.639,0l2.635-2.635A.452.452,0,0,0,233.886,230.608Z" transform="translate(-84.851 614.155)" fill="#fff"/>
  </g>
</svg>
