<svg xmlns="http://www.w3.org/2000/svg" width="49" height="49" viewBox="0 0 49 49">
  <g id="Group_4411" data-name="Group 4411" transform="translate(-499 -273)">
    <circle id="Ellipse_11" data-name="Ellipse 11" cx="24.5" cy="24.5" r="24.5" transform="translate(499 273)" fill="#f7931a"/>
    <path id="Icon_metro-bitcoin" data-name="Icon metro-bitcoin" d="M27.074,13.221a4.081,4.081,0,0,1-2.255,4.441,5.17,5.17,0,0,1,3.013,1.773,5.1,5.1,0,0,1,.775,3.684,6.508,6.508,0,0,1-.559,2.152,4.75,4.75,0,0,1-1.11,1.532,5.651,5.651,0,0,1-1.67,1.007,10.174,10.174,0,0,1-2.092.594,20.742,20.742,0,0,1-2.5.258v4.39H18.019V28.731q-1.377,0-2.1-.017v4.338H13.267v-4.39q-.31,0-.93-.009t-.947-.009H7.948l.534-3.15h1.911a.92.92,0,0,0,1-.878V17.7h.275a1.751,1.751,0,0,0-.275-.017V12.739a1.367,1.367,0,0,0-1.532-1.171H7.948V8.745l3.649.017q1.1,0,1.67-.017V4.407h2.651V8.659q1.412-.034,2.1-.034V4.407H20.67V8.745a15.358,15.358,0,0,1,2.41.387,7.828,7.828,0,0,1,1.945.775,3.944,3.944,0,0,1,1.42,1.343,4.393,4.393,0,0,1,.628,1.971Zm-3.7,9.382a2.3,2.3,0,0,0-.258-1.1,2.581,2.581,0,0,0-.637-.792,3.269,3.269,0,0,0-.99-.525,8.357,8.357,0,0,0-1.128-.318,10.179,10.179,0,0,0-1.274-.155q-.757-.052-1.188-.052t-1.11.017q-.68.017-.818.017v5.819q.138,0,.637.009t.826.009q.327,0,.912-.026t1.007-.069q.422-.043.981-.146a6.589,6.589,0,0,0,.955-.241,5.85,5.85,0,0,0,.818-.362,2.386,2.386,0,0,0,.68-.516,2.433,2.433,0,0,0,.422-.689,2.282,2.282,0,0,0,.164-.878ZM22.15,14.409a2.259,2.259,0,0,0-.215-1.007,2.4,2.4,0,0,0-.525-.723,2.574,2.574,0,0,0-.826-.482,5.917,5.917,0,0,0-.947-.284,9.478,9.478,0,0,0-1.059-.138q-.628-.052-1-.043t-.93.017q-.559.009-.68.009v5.285l.594.009q.508.009.8,0t.861-.034a7.28,7.28,0,0,0,.947-.095q.379-.069.887-.189a2.919,2.919,0,0,0,.835-.318,4.727,4.727,0,0,0,.637-.465A1.656,1.656,0,0,0,22,15.287a2.387,2.387,0,0,0,.155-.878Z" transform="translate(505.052 278.593)" fill="#fff"/>
  </g>
</svg>
