<svg xmlns="http://www.w3.org/2000/svg" width="26.272" height="18.898" viewBox="0 0 26.272 18.898">
  <path id="Path_2809" data-name="Path 2809" d="M189.867,177.019s-1.882-1.993-6.156-2.281v.629s2.344-.136,5.246,2.72a16.34,16.34,0,0,0-17.571,0c2.9-2.856,5.246-2.72,5.246-2.72v-.629c-4.274.288-6.156,2.281-6.156,2.281-3.257,4.195-3.44,13.372-3.44,13.372a8.284,8.284,0,0,0,6.922,3.225l1.416-2.045a8.171,8.171,0,0,1-3.913-2.511,16.367,16.367,0,0,0,17.423,0,8.172,8.172,0,0,1-3.913,2.511l1.416,2.045a8.284,8.284,0,0,0,6.922-3.225S193.124,181.214,189.867,177.019ZM176.081,187.8a2.372,2.372,0,1,1,2.229-2.368A2.3,2.3,0,0,1,176.081,187.8Zm8.181,0a2.372,2.372,0,1,1,2.229-2.368A2.3,2.3,0,0,1,184.262,187.8Z" transform="translate(-167.035 -174.738)" fill="#fff"/>
</svg>
