<svg xmlns="http://www.w3.org/2000/svg" width="39.656" height="47" viewBox="0 0 39.656 47">
  <g id="Group_3968" data-name="Group 3968" transform="translate(-360 -291)">
    <path id="Path_2816" data-name="Path 2816" d="M78.524,7.611,60.532.14a1.836,1.836,0,0,0-1.408,0L41.132,7.611A1.836,1.836,0,0,0,40,9.306v9.081A30.746,30.746,0,0,0,59.134,46.864a1.836,1.836,0,0,0,1.388,0A30.746,30.746,0,0,0,79.656,18.387V9.306A1.836,1.836,0,0,0,78.524,7.611Zm-2.54,10.777A27.08,27.08,0,0,1,59.828,43.17,27.081,27.081,0,0,1,43.672,18.387V10.532L59.828,3.824l16.156,6.708Z" transform="translate(320 291)" fill="#25224e"/>
    <text id="_" data-name="!" transform="translate(375 324)" fill="#25224e" font-size="30" font-family="SegoeUI-Semibold, Segoe UI" font-weight="600"><tspan x="0" y="0">!</tspan></text>
  </g>
</svg>
