<svg xmlns="http://www.w3.org/2000/svg" width="16.642" height="15.949" viewBox="0 0 16.642 15.949">
  <path id="github" d="M8.321.5A8.249,8.249,0,0,0,0,8.677a8.19,8.19,0,0,0,5.689,7.758c.416.077.569-.176.569-.393,0-.194-.007-.709-.01-1.39-2.315.493-2.8-1.1-2.8-1.1a2.18,2.18,0,0,0-.926-1.2c-.754-.507.058-.5.058-.5a1.741,1.741,0,0,1,1.274.842,1.792,1.792,0,0,0,2.423.68A1.731,1.731,0,0,1,6.8,12.291c-1.848-.2-3.79-.908-3.79-4.04a3.124,3.124,0,0,1,.856-2.194,2.861,2.861,0,0,1,.073-2.164s.7-.219,2.288.838a7.978,7.978,0,0,1,4.16,0c1.581-1.057,2.278-.838,2.278-.838a2.94,2.94,0,0,1,.083,2.164A3.137,3.137,0,0,1,13.6,8.25c0,3.141-1.945,3.832-3.8,4.034a1.94,1.94,0,0,1,.562,1.513c0,1.094-.01,1.973-.01,2.239,0,.214.146.47.572.388a8.165,8.165,0,0,0,5.711-7.747A8.25,8.25,0,0,0,8.321.5Z" transform="translate(0 -0.5)" fill="#fff"/>
</svg>
