<svg xmlns="http://www.w3.org/2000/svg" width="58.23" height="36.393" viewBox="0 0 58.23 36.393">
  <g id="hand-shake" transform="translate(0 -96.003)">
    <g id="Group_4070" data-name="Group 4070" transform="translate(8.489 98.58)">
      <g id="Group_4069" data-name="Group 4069" transform="translate(0 0)">
        <path id="Path_2851" data-name="Path 2851" d="M112.13,141.035c-1.143-2.383-5.231-5.69-9.181-8.885-2.2-1.781-4.285-3.465-5.612-4.792a1.213,1.213,0,0,0-1.269-.284c-.818.3-1.322.524-1.72.7a4.012,4.012,0,0,1-1.628.446,1.213,1.213,0,0,0-.888.531c-1.715,2.564-3.491,2.346-4.678,1.948-.378-.126-.446-.289-.483-.444-.255-1.065,1.024-3.545,2.681-5.2,3.943-3.945,5.976-4.933,10.27-3.013,4.872,2.179,9.753,3.884,9.8,3.9a1.214,1.214,0,1,0,.8-2.293c-.049-.017-4.833-1.689-9.608-3.826-5.563-2.487-8.616-.849-12.976,3.513-1.66,1.66-3.914,5.017-3.331,7.48A3,3,0,0,0,86.393,133c2.749.907,5.258.039,7.126-2.441a6.125,6.125,0,0,0,1.822-.577c.228-.1.495-.221.849-.364,1.388,1.3,3.261,2.819,5.233,4.413,3.567,2.885,7.611,6.155,8.521,8.048a1.421,1.421,0,0,1-.362,1.822,1.337,1.337,0,0,1-1.495.294,1.213,1.213,0,0,0-1.895,1.128,1.466,1.466,0,0,1-.929,1.366,1.862,1.862,0,0,1-1.89.044,1.213,1.213,0,0,0-2.036.774,2.305,2.305,0,0,1-1.432,1.858,1.279,1.279,0,0,1-1.393-.216,1.227,1.227,0,0,0-1.109-.281,1.211,1.211,0,0,0-.852.764c-.046.121-.15.412-1.286.412a6.985,6.985,0,0,1-2.972-1.017c-.852-.56-6.192-4.544-10.8-8.407-.648-.546-1.769-1.715-2.759-2.749-.878-.917-1.681-1.749-2.094-2.1a1.214,1.214,0,0,0-1.567,1.854c.376.318,1.1,1.087,1.907,1.924,1.082,1.131,2.2,2.3,2.953,2.931,4.518,3.783,9.948,7.866,11.03,8.577a9.307,9.307,0,0,0,4.307,1.412,4.175,4.175,0,0,0,2.754-.81,3.776,3.776,0,0,0,2.759-.029,4.779,4.779,0,0,0,2.526-2.332,4.691,4.691,0,0,0,3.045-.439,4.116,4.116,0,0,0,2.026-2.116,3.967,3.967,0,0,0,2.783-1A3.857,3.857,0,0,0,112.13,141.035Z" transform="translate(-74.642 -118.658)" fill="#fff"/>
      </g>
    </g>
    <g id="Group_4072" data-name="Group 4072" transform="translate(12.131 100.855)">
      <g id="Group_4071" data-name="Group 4071" transform="translate(0 0)">
        <path id="Path_2852" data-name="Path 2852" d="M118.8,138.663H107.879a1.213,1.213,0,1,0,0,2.426H118.8a1.213,1.213,0,1,0,0-2.426Z" transform="translate(-106.666 -138.663)" fill="#fff"/>
      </g>
    </g>
    <g id="Group_4074" data-name="Group 4074" transform="translate(43.764 117.837)">
      <g id="Group_4073" data-name="Group 4073" transform="translate(0 0)">
        <path id="Path_2853" data-name="Path 2853" d="M390.578,288.516a1.21,1.21,0,0,0-1.684-.33l-3.547,2.383a1.213,1.213,0,0,0,1.354,2.014l3.547-2.383A1.214,1.214,0,0,0,390.578,288.516Z" transform="translate(-384.811 -287.977)" fill="#fff"/>
      </g>
    </g>
    <g id="Group_4076" data-name="Group 4076" transform="translate(32.756 116.624)">
      <g id="Group_4075" data-name="Group 4075" transform="translate(0 0)">
        <path id="Path_2854" data-name="Path 2854" d="M297.26,284.857c-.869-.684-4.753-4.661-7.155-7.165a1.213,1.213,0,1,0-1.752,1.679c.624.65,6.124,6.383,7.4,7.393a1.208,1.208,0,0,0,.75.26,1.226,1.226,0,0,0,.956-.464A1.212,1.212,0,0,0,297.26,284.857Z" transform="translate(-288.016 -277.317)" fill="#fff"/>
      </g>
    </g>
    <g id="Group_4078" data-name="Group 4078" transform="translate(29.115 120.266)">
      <g id="Group_4077" data-name="Group 4077" transform="translate(0 0)">
        <path id="Path_2855" data-name="Path 2855" d="M264.043,315.669c-1.453-1.162-5.1-5.042-5.93-5.939a1.214,1.214,0,0,0-1.788,1.643c.044.046,4.4,4.751,6.2,6.192a1.214,1.214,0,0,0,1.516-1.895Z" transform="translate(-256.005 -309.337)" fill="#fff"/>
      </g>
    </g>
    <g id="Group_4080" data-name="Group 4080" transform="translate(24.263 122.689)">
      <g id="Group_4079" data-name="Group 4079" transform="translate(0 0)">
        <path id="Path_2856" data-name="Path 2856" d="M221.4,337c-1.73-1.458-5.27-5.226-5.961-5.966a1.214,1.214,0,1,0-1.774,1.657c.995,1.065,4.382,4.656,6.17,6.165A1.214,1.214,0,1,0,221.4,337Z" transform="translate(-213.343 -330.644)" fill="#fff"/>
      </g>
    </g>
    <g id="Group_4082" data-name="Group 4082" transform="translate(0 96.003)">
      <g id="Group_4081" data-name="Group 4081" transform="translate(0 0)">
        <path id="Path_2857" data-name="Path 2857" d="M14.179,98.761C12.1,96.791,3.785,96.153,1.286,96.005A1.212,1.212,0,0,0,0,97.216v21.836a1.214,1.214,0,0,0,1.213,1.213H8.492a1.212,1.212,0,0,0,1.152-.837c.177-.544,4.358-13.373,4.908-19.682A1.207,1.207,0,0,0,14.179,98.761ZM7.606,117.839H2.426V98.516c3.9.308,8.106.978,9.635,1.72C11.418,105.55,8.509,114.99,7.606,117.839Z" transform="translate(0 -96.003)" fill="#fff"/>
      </g>
    </g>
    <g id="Group_4084" data-name="Group 4084" transform="translate(41.289 98.429)">
      <g id="Group_4083" data-name="Group 4083" transform="translate(0 0)">
        <path id="Path_2858" data-name="Path 2858" d="M378.774,117.33c-9.525,0-14.81,2.438-15.031,2.54a1.207,1.207,0,0,0-.648.755,1.223,1.223,0,0,0,.133.985c1.5,2.414,6.194,15.822,7.1,19.092a1.213,1.213,0,0,0,1.169.89h7.279a1.214,1.214,0,0,0,1.213-1.213V118.543A1.212,1.212,0,0,0,378.774,117.33Zm-1.213,21.836H372.4c-1.15-3.746-4.547-13.514-6.442-17.551a39.513,39.513,0,0,1,11.6-1.844Z" transform="translate(-363.046 -117.33)" fill="#fff"/>
      </g>
    </g>
  </g>
</svg>
