<svg xmlns="http://www.w3.org/2000/svg" width="54.122" height="55.122" viewBox="0 0 54.122 55.122">
  <g id="hierarchy" transform="translate(0 1)">
    <path id="Path_2845" data-name="Path 2845" d="M208.685,6.342a6.342,6.342,0,1,0-6.342,6.342A6.35,6.35,0,0,0,208.685,6.342Zm-6.342,3.171a3.171,3.171,0,1,1,3.171-3.171A3.175,3.175,0,0,1,202.342,9.514Z" transform="translate(-175.282 -1)" fill="#fff"/>
    <path id="Path_2846" data-name="Path 2846" d="M47.779,145.74v-6.5H28.646v-3.171H38.16v-8.139A7.937,7.937,0,0,0,30.232,120H23.89a7.937,7.937,0,0,0-7.928,7.928v8.139h9.514v3.171H6.342v6.5a7.928,7.928,0,1,0,3.171,0V142.41H25.475v3.331a7.928,7.928,0,1,0,3.171,0V142.41H44.608v3.331a7.928,7.928,0,1,0,3.171,0ZM19.133,127.928a4.762,4.762,0,0,1,4.757-4.757h6.342a4.762,4.762,0,0,1,4.757,4.757V132.9H19.133Zm-6.448,25.581a4.757,4.757,0,1,1-4.757-4.757A4.762,4.762,0,0,1,12.685,153.509Zm19.133,0a4.757,4.757,0,1,1-4.757-4.757A4.762,4.762,0,0,1,31.818,153.509Zm14.376,4.757a4.757,4.757,0,1,1,4.757-4.757A4.762,4.762,0,0,1,46.194,158.266Z" transform="translate(0 -107.315)" fill="#fff"/>
  </g>
</svg>
