<svg xmlns="http://www.w3.org/2000/svg" width="11.93" height="11.93" viewBox="0 0 11.93 11.93">
  <g id="Group_4194" data-name="Group 4194" transform="translate(-122 -5483)">
    <path id="Path_2866" data-name="Path 2866" d="M16.2,15.739h0V11.363c0-2.14-.461-3.789-2.963-3.789A2.6,2.6,0,0,0,10.9,8.86h-.035V7.774H8.489v7.965h2.47V11.795c0-1.038.2-2.042,1.483-2.042,1.267,0,1.286,1.185,1.286,2.109v3.878Z" transform="translate(117.731 5479.191)" fill="#fff"/>
    <path id="Path_2867" data-name="Path 2867" d="M.4,7.977H2.869v7.965H.4Z" transform="translate(121.801 5478.988)" fill="#fff"/>
    <path id="Path_2868" data-name="Path 2868" d="M1.433,0A1.439,1.439,0,1,0,2.865,1.433,1.433,1.433,0,0,0,1.433,0Z" transform="translate(122 5483)" fill="#fff"/>
  </g>
</svg>
