<svg xmlns="http://www.w3.org/2000/svg" width="42.137" height="48.898" viewBox="0 0 42.137 48.898">
  <g id="Group_4164" data-name="Group 4164" transform="translate(-147 -454)">
    <g id="Icon_feather-lock" data-name="Icon feather-lock" transform="translate(149 456)">
      <path id="Path_2819" data-name="Path 2819" d="M8.737,16.5H38.4c2.34,0,4.237,2.45,4.237,5.473V41.13c0,3.023-1.9,5.473-4.237,5.473H8.737C6.4,46.6,4.5,44.153,4.5,41.13V21.973C4.5,18.95,6.4,16.5,8.737,16.5Z" transform="translate(-4.5 -1.705)" fill="none" stroke="#fff" stroke-linecap="round" stroke-linejoin="round" stroke-width="4"/>
      <path id="Path_2820" data-name="Path 2820" d="M10.5,17.8V11.219C10.5,6.68,14.942,3,20.422,3s9.922,3.68,9.922,8.219V17.8" transform="translate(-1.25 -3)" fill="none" stroke="#fff" stroke-linecap="round" stroke-linejoin="round" stroke-width="4"/>
    </g>
    <path id="Path_2821" data-name="Path 2821" d="M263.764,252.012a2.455,2.455,0,0,0-2.565,2.328v4.685a2.578,2.578,0,0,0,5.131,0V254.34A2.455,2.455,0,0,0,263.764,252.012Zm0,0" transform="translate(-95.639 232.766)" fill="#fff"/>
  </g>
</svg>
