<svg xmlns="http://www.w3.org/2000/svg" width="22.722" height="19.178" viewBox="0 0 22.722 19.178">
  <path id="medium_1_" data-name="medium (1)" d="M7.57,20.288a.67.67,0,0,1-1.04.658L.634,18a1.071,1.071,0,0,1-.45-.423A1.119,1.119,0,0,1,0,16.987V2.571c0-.538.323-.781,1.053-.418L7.532,5.391c.094.094.025-.55.038,14.9ZM8.381,6.731l6.771,10.952L8.381,14.319Zm14.34.228V20.288a.729.729,0,0,1-.178.512.618.618,0,0,1-.482.2,1.2,1.2,0,0,1-.6-.165l-5.591-2.782Zm-.038-1.518q0,.038-3.252,5.3t-3.811,6.165L10.676,8.893l4.108-6.664a.769.769,0,0,1,.989-.278l6.86,3.415a.08.08,0,0,1,.05.076Z" transform="translate(0 -1.873)" fill="#fff"/>
</svg>
