<svg xmlns="http://www.w3.org/2000/svg" width="53.566" height="50.302" viewBox="0 0 53.566 50.302">
  <g id="rocket" transform="translate(0.25 -15.723)">
    <path id="Path_2848" data-name="Path 2848" d="M52.288,175.862H48.912v-28.3a3.273,3.273,0,0,0-3.27-3.27h-9.97a.777.777,0,1,0,0,1.555h9.97a1.717,1.717,0,0,1,1.715,1.715v28.3H44.7a6.532,6.532,0,0,0,.061-.884,6.6,6.6,0,0,0-6.593-6.593,6.5,6.5,0,0,0-1.458.166,4.916,4.916,0,0,0-4.358-2.659,4.8,4.8,0,0,0-1.74.324,4.1,4.1,0,0,0-8.151,0,4.8,4.8,0,0,0-1.74-.324,4.916,4.916,0,0,0-4.358,2.659,6.5,6.5,0,0,0-1.458-.166,6.6,6.6,0,0,0-6.593,6.593,6.53,6.53,0,0,0,.061.884H5.709v-28.3a1.717,1.717,0,0,1,1.715-1.715h9.97a.777.777,0,1,0,0-1.555H7.424a3.273,3.273,0,0,0-3.27,3.27v28.3H.777A.777.777,0,0,0,0,176.64V178.3a2.442,2.442,0,0,0,2.439,2.439H50.627a2.442,2.442,0,0,0,2.439-2.439V176.64A.777.777,0,0,0,52.288,175.862Zm-.777,2.439a.885.885,0,0,1-.884.884H2.439a.885.885,0,0,1-.884-.884v-.884H11.578a.777.777,0,0,0,0-1.555H9.942a4.99,4.99,0,0,1-.08-.884,5.027,5.027,0,0,1,6.685-4.757.777.777,0,0,0,.99-.483,3.369,3.369,0,0,1,3.179-2.291,3.325,3.325,0,0,1,2.158.8.777.777,0,0,0,1.242-.827,2.5,2.5,0,0,1-.13-.755,2.546,2.546,0,0,1,5.092,0,2.5,2.5,0,0,1-.13.755.777.777,0,0,0,1.242.827,3.325,3.325,0,0,1,2.158-.8,3.369,3.369,0,0,1,3.179,2.291.777.777,0,0,0,.99.483,5.03,5.03,0,0,1,6.606,5.641H14.9a.777.777,0,0,0,0,1.555H51.511Z" transform="translate(0 -114.965)" fill="#fff" stroke="#fff" stroke-width="0.5"/>
    <path id="Path_2849" data-name="Path 2849" d="M153.065,38.882a3.276,3.276,0,0,0-.758,2.093V43.4a.777.777,0,0,0,1.159.677L159,40.95q.316.578.671,1.136l-.7,2.784a.777.777,0,0,0,.754.966h6.647a.777.777,0,0,0,.754-.966l-.7-2.784q.354-.558.671-1.136l5.536,3.124A.777.777,0,0,0,173.8,43.4V40.975a3.276,3.276,0,0,0-.758-2.093l-3.69-4.427a21.213,21.213,0,0,0,.294-3.521,20.862,20.862,0,0,0-1.631-8.144,20.023,20.023,0,0,0-4.417-6.534.777.777,0,0,0-1.091,0,20.021,20.021,0,0,0-4.417,6.534,20.862,20.862,0,0,0-1.631,8.144,21.216,21.216,0,0,0,.293,3.516Zm.8,3.183v-1.09a1.718,1.718,0,0,1,.4-1.1l2.914-3.5a20.612,20.612,0,0,0,1.133,3.176Zm6.865,2.215.442-1.769h3.771l.442,1.769Zm11.123-4.4a1.718,1.718,0,0,1,.4,1.1v1.09L167.8,39.557a20.618,20.618,0,0,0,1.133-3.176Zm-8.8-21.953a18.563,18.563,0,0,1,3.2,4.754h-6.4A18.563,18.563,0,0,1,163.054,17.925Zm-3.848,6.309h7.7a19.48,19.48,0,0,1,1.19,6.7,19.22,19.22,0,0,1-2.785,10.023H160.8a19.22,19.22,0,0,1-2.785-10.023A19.482,19.482,0,0,1,159.206,24.234Z" transform="translate(-136.521)" fill="#fff" stroke="#fff" stroke-width="0.5"/>
    <path id="Path_2850" data-name="Path 2850" d="M230.992,123.512a3.27,3.27,0,1,0-3.27,3.27A3.273,3.273,0,0,0,230.992,123.512Zm-4.985,0a1.715,1.715,0,1,1,1.715,1.715A1.717,1.717,0,0,1,226.007,123.512Z" transform="translate(-201.189 -93.409)" fill="#fff" stroke="#fff" stroke-width="0.5"/>
  </g>
</svg>
