<svg xmlns="http://www.w3.org/2000/svg" width="47.094" height="47.093" viewBox="0 0 47.094 47.093">
  <path id="Path_2847" data-name="Path 2847" d="M46.2,37.1,34.486,25.383a1.381,1.381,0,0,0-1.245-.378,3.832,3.832,0,0,1-3.178-1.2l4.826-4.826A9.661,9.661,0,0,0,46.15,5.494a1.38,1.38,0,0,0-2.22-.381L39.476,9.566l-1.6-.35-.349-1.6,4.453-4.453A1.38,1.38,0,0,0,41.6.941,9.661,9.661,0,0,0,28.116,12.2l-6.982,6.982L11.672,9.723l1.3-1.3a1.38,1.38,0,0,0-.138-2.072L7.307,2.123a1.38,1.38,0,0,0-1.814.12L2.241,5.5a1.38,1.38,0,0,0-.12,1.814l4.228,5.529a1.38,1.38,0,0,0,2.072.138l1.3-1.3,9.462,9.462L12.2,28.119A9.661,9.661,0,0,0,.939,41.6a1.38,1.38,0,0,0,2.22.381l4.453-4.453,1.6.349.35,1.6L5.111,43.932a1.38,1.38,0,0,0,.381,2.22A9.661,9.661,0,0,0,18.974,34.891L23.8,30.066c1.653,1.808,1.2,3.179,1.2,3.179a1.385,1.385,0,0,0,.378,1.244L37.1,46.2a3.044,3.044,0,0,0,4.3,0L46.2,41.4a3.039,3.039,0,0,0,0-4.3ZM5.047,6.592,6.59,5.049,9.907,7.585,7.583,9.91ZM16.111,35a6.9,6.9,0,0,1-7.432,9.268l3.37-3.37a1.38,1.38,0,0,0,.372-1.27l-.7-3.2a1.38,1.38,0,0,0-1.054-1.053l-3.2-.7a1.379,1.379,0,0,0-1.27.372L2.826,38.413a6.9,6.9,0,0,1,9.269-7.432,1.38,1.38,0,0,0,1.462-.315L30.663,13.558a1.38,1.38,0,0,0,.315-1.462A6.9,6.9,0,0,1,38.41,2.827L35.041,6.2a1.38,1.38,0,0,0-.372,1.27l.7,3.2a1.38,1.38,0,0,0,1.053,1.054l3.2.7a1.38,1.38,0,0,0,1.27-.372l3.37-3.37A6.9,6.9,0,0,1,35,16.113a1.38,1.38,0,0,0-1.462.315L16.426,33.536A1.38,1.38,0,0,0,16.111,35Zm12-9.245a8.3,8.3,0,0,0,2.44,1.613l-3.188,3.188a8.305,8.305,0,0,0-1.613-2.44ZM44.25,39.447l-4.806,4.806a.281.281,0,0,1-.4,0l-10.74-10.74,5.2-5.2L44.25,39.05A.281.281,0,0,1,44.25,39.447Z" transform="translate(0.002 0)" fill="#fff"/>
</svg>
