<svg xmlns="http://www.w3.org/2000/svg" width="51.607" height="51.083" viewBox="0 0 51.607 51.083">
  <g id="settings-gears" transform="translate(-0.001 -4.737)">
    <path id="Path_2842" data-name="Path 2842" d="M3.389,23.383a12.564,12.564,0,0,0,1.124,2.668L3.157,27.762a1.4,1.4,0,0,0,.105,1.86L5.6,31.959a1.4,1.4,0,0,0,1.86.105l1.7-1.345a12.348,12.348,0,0,0,2.774,1.174l.255,2.187a1.4,1.4,0,0,0,1.39,1.24h3.305a1.4,1.4,0,0,0,1.39-1.24l.244-2.109a12.49,12.49,0,0,0,2.973-1.2l1.644,1.3a1.4,1.4,0,0,0,1.86-.105l2.336-2.336a1.4,1.4,0,0,0,.105-1.86l-1.279-1.622a12.2,12.2,0,0,0,1.224-2.923L29.348,23a1.4,1.4,0,0,0,1.24-1.39V18.3a1.4,1.4,0,0,0-1.24-1.39l-1.943-.227a12.28,12.28,0,0,0-1.174-2.89l1.2-1.511a1.4,1.4,0,0,0-.105-1.86L24.992,8.092a1.4,1.4,0,0,0-1.86-.105L21.664,9.149a12.321,12.321,0,0,0-3.039-1.273l-.221-1.9a1.4,1.4,0,0,0-1.39-1.24H13.709a1.4,1.4,0,0,0-1.39,1.24l-.221,1.9A12.27,12.27,0,0,0,8.981,9.194L7.458,7.987a1.4,1.4,0,0,0-1.86.105L3.262,10.428a1.4,1.4,0,0,0-.105,1.86L4.43,13.9a12.043,12.043,0,0,0-1.152,2.918l-2.037.233A1.4,1.4,0,0,0,0,18.439v3.305a1.4,1.4,0,0,0,1.24,1.39Zm11.975-8.941A5.464,5.464,0,1,1,9.9,19.906,5.472,5.472,0,0,1,15.364,14.442Z" fill="#fff"/>
    <path id="Path_2843" data-name="Path 2843" d="M499.5,291.55l-1.744-1.473a1.379,1.379,0,0,0-1.838.05l-.963.9a9.954,9.954,0,0,0-2.569-.83l-.271-1.329a1.392,1.392,0,0,0-1.473-1.107l-2.275.194a1.386,1.386,0,0,0-1.268,1.334l-.044,1.351a9.984,9.984,0,0,0-2.453,1.29l-1.151-.764a1.383,1.383,0,0,0-1.821.26l-1.473,1.755a1.38,1.38,0,0,0,.05,1.838l1.008,1.074a10.321,10.321,0,0,0-.742,2.458l-1.439.293a1.392,1.392,0,0,0-1.107,1.473l.194,2.275a1.386,1.386,0,0,0,1.334,1.268l1.556.05a10.168,10.168,0,0,0,1.1,2.1l-.869,1.312a1.383,1.383,0,0,0,.26,1.821l1.744,1.473a1.38,1.38,0,0,0,1.838-.05l1.141-1.068a10,10,0,0,0,2.342.764l.316,1.561a1.392,1.392,0,0,0,1.473,1.107l2.275-.194a1.386,1.386,0,0,0,1.268-1.334l.05-1.528a10.235,10.235,0,0,0,2.342-1.185l1.257.83a1.383,1.383,0,0,0,1.821-.26l1.473-1.744a1.38,1.38,0,0,0-.05-1.838l-1.013-1.074a9.968,9.968,0,0,0,.8-2.469l1.384-.282a1.392,1.392,0,0,0,1.107-1.473l-.194-2.275a1.386,1.386,0,0,0-1.334-1.268l-1.39-.044a10.056,10.056,0,0,0-1.157-2.281l.758-1.14A1.376,1.376,0,0,0,499.5,291.55ZM490.924,304.7a4.473,4.473,0,1,1,4.08-4.833A4.473,4.473,0,0,1,490.924,304.7Z" transform="translate(-451.461 -267.353)" fill="#fff"/>
    <path id="Path_2844" data-name="Path 2844" d="M183.554,566.8a1.383,1.383,0,0,0-1.24,1.362l-.017,1.4a1.38,1.38,0,0,0,1.207,1.39l1.03.133a7.988,7.988,0,0,0,.731,1.788l-.664.819a1.38,1.38,0,0,0,.083,1.838l.98,1a1.382,1.382,0,0,0,1.838.127l.825-.637a8.085,8.085,0,0,0,1.838.8l.111,1.063a1.383,1.383,0,0,0,1.362,1.24l1.4.017a1.38,1.38,0,0,0,1.39-1.207l.127-1.008a8.323,8.323,0,0,0,1.993-.775l.775.626a1.38,1.38,0,0,0,1.838-.083l1-.98a1.382,1.382,0,0,0,.127-1.838l-.592-.77a8.029,8.029,0,0,0,.842-1.938l.919-.094a1.383,1.383,0,0,0,1.24-1.362l.017-1.4a1.38,1.38,0,0,0-1.207-1.39l-.9-.116a8.342,8.342,0,0,0-.758-1.938l.559-.686a1.38,1.38,0,0,0-.083-1.838l-.98-1a1.382,1.382,0,0,0-1.838-.127l-.67.515a8.144,8.144,0,0,0-2.015-.875l-.089-.869a1.383,1.383,0,0,0-1.362-1.24l-1.4-.017a1.38,1.38,0,0,0-1.39,1.207l-.111.864a8.367,8.367,0,0,0-2.087.852l-.692-.565a1.381,1.381,0,0,0-1.838.083l-1.008.986a1.382,1.382,0,0,0-.127,1.838l.592.764a8.1,8.1,0,0,0-.792,1.938Zm9.041-1.583a3.643,3.643,0,1,1-3.687,3.6A3.646,3.646,0,0,1,192.594,565.217Z" transform="translate(-172.204 -523.326)" fill="#fff"/>
  </g>
</svg>
