<svg xmlns="http://www.w3.org/2000/svg" width="28.975" height="56.95" viewBox="0 0 28.975 56.95">
  <g id="transfer" transform="translate(-5.5 0.5)">
    <path id="Path_22" data-name="Path 22" d="M23.484,43.969H7.166A1.166,1.166,0,0,1,6,42.8V26.485a1.167,1.167,0,0,1,1.991-.825l5,5.005,12-12a5.426,5.426,0,0,0,0-7.675,1.173,1.173,0,0,1,0-1.653,1.166,1.166,0,0,1,1.648,0l2.73,2.73a10.5,10.5,0,0,1,0,14.836L19.3,36.975l5,5a1.167,1.167,0,0,1-.823,1.991ZM8.331,41.638H20.671L16.833,37.8a1.166,1.166,0,0,1,0-1.648L27.723,25.263A8.176,8.176,0,0,0,28.9,15.211a7.732,7.732,0,0,1-2.259,5.105L13.819,33.138a1.166,1.166,0,0,1-1.648,0L8.331,29.3Z" transform="translate(0 11.981)" fill="#fff" stroke="#fff" stroke-width="1"/>
    <path id="Path_23" data-name="Path 23" d="M13.282,34.969a1.171,1.171,0,0,1-.825-.34L9.727,31.9a10.5,10.5,0,0,1,0-14.836L19.794,6.994l-5-5A1.166,1.166,0,0,1,15.614,0H31.933A1.166,1.166,0,0,1,33.1,1.166V17.484a1.167,1.167,0,0,1-1.991.825l-5-5.005-12,12a5.426,5.426,0,0,0,0,7.674,1.174,1.174,0,0,1,0,1.653A1.157,1.157,0,0,1,13.282,34.969ZM18.428,2.331l3.837,3.837a1.166,1.166,0,0,1,0,1.648L11.375,18.708A8.176,8.176,0,0,0,10.2,28.761a7.732,7.732,0,0,1,2.259-5.105L25.279,10.833a1.166,1.166,0,0,1,1.648,0l3.84,3.837V2.331Z" transform="translate(0.877)" fill="#fff" stroke="#fff" stroke-width="1"/>
  </g>
</svg>
