<svg xmlns="http://www.w3.org/2000/svg" width="23.613" height="19.178" viewBox="0 0 23.613 19.178">
  <path id="Path_2813" data-name="Path 2813" d="M23.612,44.536a9.656,9.656,0,0,1-2.787.749,4.7,4.7,0,0,0,2.128-2.667,9.5,9.5,0,0,1-3.072,1.169,4.851,4.851,0,0,0-6.96-.113A4.664,4.664,0,0,0,11.506,47.1a5.371,5.371,0,0,0,.12,1.109,13.485,13.485,0,0,1-5.566-1.491,13.72,13.72,0,0,1-4.412-3.573,4.85,4.85,0,0,0-.075,4.75,4.834,4.834,0,0,0,1.573,1.723A4.8,4.8,0,0,1,.958,49v.06a4.677,4.677,0,0,0,1.1,3.079A4.761,4.761,0,0,0,4.838,53.81a5.014,5.014,0,0,1-1.274.165,6.174,6.174,0,0,1-.914-.075,4.85,4.85,0,0,0,4.525,3.356,9.475,9.475,0,0,1-6.008,2.067A10.3,10.3,0,0,1,0,59.264,13.44,13.44,0,0,0,7.43,61.436a14.139,14.139,0,0,0,4.839-.816,12.3,12.3,0,0,0,3.866-2.188A14.638,14.638,0,0,0,18.9,55.279a14.064,14.064,0,0,0,1.731-3.723,13.754,13.754,0,0,0,.569-3.888q0-.42-.015-.629A10.135,10.135,0,0,0,23.612,44.536Z" transform="translate(0.001 -42.259)" fill="#fff"/>
</svg>
