<svg xmlns="http://www.w3.org/2000/svg" width="123.006" height="145.785" viewBox="0 0 123.006 145.785">
  <g id="verified" opacity="0.81">
    <path id="Path_7" data-name="Path 7" d="M159.5,23.606,103.687.435a5.694,5.694,0,0,0-4.367,0L43.511,23.606A5.7,5.7,0,0,0,40,28.866V57.033a95.368,95.368,0,0,0,59.351,88.33,5.7,5.7,0,0,0,4.3,0,95.368,95.368,0,0,0,59.351-88.33V28.866A5.7,5.7,0,0,0,159.5,23.606Zm-7.878,33.427A84,84,0,0,1,101.5,133.9,84,84,0,0,1,51.389,57.033V32.668L101.5,11.861l50.114,20.807Zm-56.408,19.2,24.477-24.477a5.695,5.695,0,1,1,8.053,8.053l-28.5,28.5a5.7,5.7,0,0,1-8.054,0L75.267,72.394A5.695,5.695,0,0,1,83.32,64.34Z" transform="translate(-40 0)" fill="#e4e4e4"/>
  </g>
</svg>
