<svg xmlns="http://www.w3.org/2000/svg" width="20.355" height="18.269" viewBox="0 0 20.355 18.269">
  <g id="wallet" transform="translate(0.25 0.25)">
    <path id="Path_1" data-name="Path 1" d="M17.9,29.129a2.684,2.684,0,0,0-2.672-2.473H2.681A2.684,2.684,0,0,0,0,29.337V41.743a2.684,2.684,0,0,0,2.681,2.681H17.174a2.684,2.684,0,0,0,2.681-2.681V31.709A2.686,2.686,0,0,0,17.9,29.129ZM2.681,27.909H15.227a1.431,1.431,0,0,1,1.395,1.12H2.681a2.665,2.665,0,0,0-1.429.414v-.1A1.43,1.43,0,0,1,2.681,27.909ZM17.174,43.172H2.681a1.43,1.43,0,0,1-1.429-1.429V31.709a1.43,1.43,0,0,1,1.429-1.429H17.174A1.43,1.43,0,0,1,18.6,31.709V33.9H14.609a2.87,2.87,0,0,0,0,5.74H18.6v2.108A1.43,1.43,0,0,1,17.174,43.172ZM18.6,38.383H14.609a1.618,1.618,0,0,1,0-3.235H18.6Z" transform="translate(0 -26.656)" fill="#25224e" stroke="#25224e" stroke-width="0.5"/>
    <circle id="Ellipse_1" data-name="Ellipse 1" cx="0.652" cy="0.652" r="0.652" transform="translate(14.19 9.505)" fill="#25224e" stroke="#25224e" stroke-width="0.5"/>
  </g>
</svg>
