<svg xmlns="http://www.w3.org/2000/svg" width="45.568" height="40.322" viewBox="0 0 45.568 40.322">
  <g id="web-programming" transform="translate(0.5 0.5)">
    <path id="Path_2834" data-name="Path 2834" d="M120.5,190.569a.733.733,0,0,1-.476-.176l-4.761-4.054a.736.736,0,0,1,0-1.121l4.761-4.054a.736.736,0,1,1,.954,1.12l-4.1,3.494,4.1,3.494a.736.736,0,0,1-.478,1.3Zm0,0" transform="translate(-102.912 -161.964)" fill="#fff" stroke="#fff" stroke-width="1"/>
    <path id="Path_2835" data-name="Path 2835" d="M250.444,190.569a.736.736,0,0,1-.478-1.3l4.1-3.494-4.1-3.494a.736.736,0,0,1,.954-1.12l4.761,4.054a.736.736,0,0,1,0,1.121l-4.761,4.054A.733.733,0,0,1,250.444,190.569Zm0,0" transform="translate(-223.46 -161.964)" fill="#fff" stroke="#fff" stroke-width="1"/>
    <path id="Path_2836" data-name="Path 2836" d="M189.691,168.586a.75.75,0,0,1-.153-.016.736.736,0,0,1-.568-.872l2.967-14.089a.736.736,0,0,1,1.44.3L190.41,168A.736.736,0,0,1,189.691,168.586Zm0,0" transform="translate(-169.092 -136.94)" fill="#fff" stroke="#fff" stroke-width="1"/>
    <path id="Path_2837" data-name="Path 2837" d="M39.628,39.322H4.94A4.946,4.946,0,0,1,0,34.381V4.94A4.946,4.946,0,0,1,4.94,0H39.628a4.946,4.946,0,0,1,4.94,4.94V34.381A4.946,4.946,0,0,1,39.628,39.322ZM4.94,1.472A3.473,3.473,0,0,0,1.472,4.94V34.381A3.473,3.473,0,0,0,4.94,37.85H39.628A3.473,3.473,0,0,0,43.1,34.381V4.94a3.473,3.473,0,0,0-3.469-3.469Zm0,0" fill="#fff" stroke="#fff" stroke-width="1"/>
    <path id="Path_2838" data-name="Path 2838" d="M43.833,99.562H.736a.736.736,0,0,1,0-1.472h43.1a.736.736,0,0,1,0,1.472Zm0,0" transform="translate(0 -87.779)" fill="#fff" stroke="#fff" stroke-width="1"/>
    <path id="Path_2839" data-name="Path 2839" d="M99.778,38.946a2.329,2.329,0,1,1,2.329-2.329,2.332,2.332,0,0,1-2.329,2.329Zm0-3.185a.857.857,0,1,0,.857.857.858.858,0,0,0-.857-.857Zm0,0" transform="translate(-86.337 -30.685)" fill="#fff"/>
    <path id="Path_2840" data-name="Path 2840" d="M31.715,38.731A2.329,2.329,0,1,1,34.044,36.4,2.331,2.331,0,0,1,31.715,38.731Zm0-3.185a.857.857,0,1,0,.857.857A.858.858,0,0,0,31.715,35.546Zm0,0" transform="translate(-25.429 -30.493)" fill="#fff"/>
    <path id="Path_2841" data-name="Path 2841" d="M167.844,39.161a2.328,2.328,0,1,1,2.329-2.329A2.331,2.331,0,0,1,167.844,39.161Zm0-3.185a.857.857,0,1,0,.857.857A.858.858,0,0,0,167.844,35.975Zm0,0" transform="translate(-147.248 -30.877)" fill="#fff"/>
  </g>
</svg>
