<svg xmlns="http://www.w3.org/2000/svg" width="27.514" height="19.178" viewBox="0 0 27.514 19.178">
  <path id="Path_2814" data-name="Path 2814" d="M27.039,17.761a3.476,3.476,0,0,0-2.975-2.7,92.45,92.45,0,0,0-10.3-.381,92.465,92.465,0,0,0-10.3.381,3.475,3.475,0,0,0-2.973,2.7A29.467,29.467,0,0,0,0,24.265a29.458,29.458,0,0,0,.479,6.5,3.475,3.475,0,0,0,2.973,2.7,92.383,92.383,0,0,0,10.3.381,92.365,92.365,0,0,0,10.3-.381,3.477,3.477,0,0,0,2.974-2.7,29.444,29.444,0,0,0,.481-6.5A29.462,29.462,0,0,0,27.039,17.761ZM10.206,28.536v-9.1L18.954,24Z" transform="translate(0 -14.676)" fill="#fff"/>
</svg>
